<svg width="64" height="64" viewBox="0 0 64 64" fill="none" xmlns="http://www.w3.org/2000/svg">
<path d="M0.879501 20.7005V43.3018C0.879501 51.1032 7.13831 57.4278 14.8592 57.4278C16.6499 57.4278 18.3614 57.0878 19.9343 56.4678C22.3657 60.6345 26.8529 63.4298 31.9861 63.4298C37.1193 63.4298 41.6059 60.6338 44.0373 56.4672C45.6547 57.1034 47.3754 57.429 49.1111 57.4272C56.832 57.4272 63.0915 51.1025 63.0915 43.3005V20.6998C63.0915 12.8985 56.832 6.57449 49.1111 6.57449C47.3217 6.57449 45.6109 6.91449 44.0373 7.53316C41.6066 3.36649 37.12 0.569824 31.9868 0.569824C26.8523 0.569824 22.365 3.36649 19.9343 7.53382C18.3169 6.89782 16.5961 6.57247 14.8605 6.57449C7.13897 6.57449 0.879501 12.8985 0.879501 20.7005Z" fill="#6772E5"/>
</svg>
