<svg width="59" height="60" viewBox="0 0 59 60" fill="none" xmlns="http://www.w3.org/2000/svg">
<path d="M22.306 1.34592C13.032 -1.12608 3.50002 4.34993 1.01602 13.5759C-0.612979 19.6209 1.19002 25.7769 5.23602 29.9999C3.2203 32.0942 1.7684 34.6653 1.01602 37.4729C-1.46998 46.6999 4.03402 56.1819 13.308 58.6539C16.1553 59.4154 19.1491 59.4426 22.0098 58.7331C24.8704 58.0236 27.5045 56.6006 29.666 54.5969C31.7494 56.5326 34.277 57.9259 37.026 58.6539C46.3 61.1259 55.832 55.6509 58.317 46.4249C59.945 40.3789 58.143 34.2219 54.097 30.0009C56.1129 27.9064 57.5648 25.3349 58.317 22.5269C60.802 13.3009 55.298 3.81892 46.025 1.34692C43.1778 0.585268 40.1841 0.557812 37.3234 1.26712C34.4627 1.97643 31.8286 3.39935 29.667 5.40292C27.5833 3.46748 25.0553 2.07353 22.306 1.34592Z" fill="#2C4E7B"/>
</svg>
