<svg width="59" height="60" viewBox="0 0 59 60" fill="none" xmlns="http://www.w3.org/2000/svg">
<path d="M22.306 1.34592C13.032 -1.12608 3.49999 4.34993 1.01599 13.5759C-0.61301 19.6209 1.18999 25.7769 5.23599 29.9999C3.22027 32.0942 1.76837 34.6653 1.01599 37.4729C-1.47001 46.6999 4.03399 56.1819 13.308 58.6539C16.1553 59.4154 19.1491 59.4426 22.0097 58.7331C24.8704 58.0236 27.5045 56.6006 29.666 54.5969C31.7493 56.5326 34.277 57.9259 37.026 58.6539C46.3 61.1259 55.832 55.6509 58.317 46.4249C59.945 40.3789 58.143 34.2219 54.097 30.0009C56.1128 27.9064 57.5647 25.3349 58.317 22.5269C60.802 13.3009 55.298 3.81892 46.025 1.34692C43.1778 0.585268 40.184 0.557812 37.3234 1.26712C34.4627 1.97643 31.8285 3.39935 29.667 5.40292C27.5832 3.46748 25.0553 2.07353 22.306 1.34592Z" fill="#202020"/>
</svg>
