<svg width="58" height="58" viewBox="0 0 58 58" fill="none" xmlns="http://www.w3.org/2000/svg">
<path d="M1.20062 11.546C-0.806641 4.99309 5.32609 -1.13965 11.879 0.867611L26.8293 5.44717C28.4612 5.94704 30.2053 5.94704 31.8372 5.44717L46.7876 0.867611C53.3404 -1.13965 59.4731 4.99308 57.4659 11.5459L52.8863 26.4963C52.3865 28.1282 52.3865 29.8723 52.8863 31.5042L57.4659 46.4545C59.4731 53.0074 53.3404 59.1401 46.7876 57.1329L31.8372 52.5533C30.2053 52.0535 28.4612 52.0535 26.8293 52.5533L11.879 57.1329C5.3261 59.1401 -0.806641 53.0074 1.20062 46.4545L5.78018 31.5042C6.28005 29.8723 6.28005 28.1282 5.78018 26.4963L1.20062 11.546Z" fill="#35B454"/>
</svg>
