<svg width="16" height="16" viewBox="0 0 16 16" fill="none" xmlns="http://www.w3.org/2000/svg">
<path fill-rule="evenodd" clip-rule="evenodd" d="M7.3751 0.82494C7.3974 0.80225 7.4208 0.78077 7.4454 0.7606C7.5046 0.71203 7.5686 0.67238 7.6357 0.64168C7.7459 0.59118 7.8683 0.56288 7.9973 0.5625H7.9999C8.0035 0.5625 8.0071 0.56252 8.0107 0.56256C8.1154 0.56382 8.2157 0.58349 8.3085 0.61847C8.4216 0.661 8.5277 0.72777 8.6187 0.81878L15.1812 7.3813C15.5229 7.723 15.5229 8.277 15.1812 8.6187C14.8395 8.9604 14.2855 8.9604 13.9438 8.6187L8.8749 3.5499V14.5625C8.8749 15.0458 8.4832 15.4375 7.9999 15.4375C7.5167 15.4375 7.1249 15.0458 7.1249 14.5625V3.55L2.05622 8.6187C1.71451 8.9604 1.16049 8.9604 0.818783 8.6187C0.477073 8.277 0.477073 7.723 0.818783 7.3813L7.3751 0.82494Z" fill="#212121"/>
</svg>
