<svg width="22" height="22" viewBox="0 0 22 22" fill="none" xmlns="http://www.w3.org/2000/svg">
<path fill-rule="evenodd" clip-rule="evenodd" d="M2.5 11C2.5 6.3056 6.3056 2.5 11 2.5C15.6944 2.5 19.5 6.3056 19.5 11C19.5 15.6944 15.6944 19.5 11 19.5C6.3056 19.5 2.5 15.6944 2.5 11ZM11 0.75C5.33908 0.75 0.75 5.33908 0.75 11C0.75 16.6609 5.33908 21.25 11 21.25C16.6609 21.25 21.25 16.6609 21.25 11C21.25 5.33908 16.6609 0.75 11 0.75ZM11.875 5.375C11.875 4.89175 11.4832 4.5 11 4.5C10.5168 4.5 10.125 4.89175 10.125 5.375V9.5842L7.6413 8.3424C7.2091 8.1263 6.6835 8.3015 6.4674 8.7337C6.2513 9.1659 6.4265 9.6915 6.8587 9.9076L10.6087 11.7826C10.8799 11.9182 11.202 11.9038 11.46 11.7443C11.718 11.5849 11.875 11.3033 11.875 11V5.375Z" fill="#212121"/>
</svg>
