<svg width="25" height="24" viewBox="0 0 25 24" fill="none" xmlns="http://www.w3.org/2000/svg">
<g clip-path="url(#clip0_1_5514)">
<path d="M12.853 3.90303L12.5 4.25603L12.147 3.90303C10.9278 2.68382 9.27424 1.99889 7.55003 1.99889C5.82582 1.99889 4.17223 2.68382 2.95303 3.90303C1.73383 5.12223 1.04889 6.77582 1.04889 8.50002C1.04889 10.2242 1.73383 11.8778 2.95303 13.097L4.01303 14.157L11.793 21.937C11.9806 22.1245 12.2349 22.2298 12.5 22.2298C12.7652 22.2298 13.0195 22.1245 13.207 21.937L20.987 14.157L22.047 13.097C22.6511 12.4935 23.1303 11.7769 23.4572 10.9882C23.7842 10.1994 23.9525 9.35388 23.9525 8.50002C23.9525 7.64617 23.7842 6.80068 23.4572 6.0119C23.1303 5.22311 22.6511 4.5065 22.047 3.90303C21.4434 3.2992 20.7268 2.82021 19.938 2.49341C19.1492 2.16662 18.3038 1.99841 17.45 1.99841C16.5962 1.99841 15.7508 2.16662 14.9621 2.49341C14.1733 2.82021 13.4566 3.2992 12.853 3.90303Z" fill="#FF7279" stroke="#FFECEC" stroke-width="2" stroke-linecap="round" stroke-linejoin="round"/>
</g>
<defs>
<clipPath id="clip0_1_5514">
<rect width="25" height="24" fill="white"/>
</clipPath>
</defs>
</svg>
