<svg width="72" height="19" viewBox="0 0 72 19" fill="none" xmlns="http://www.w3.org/2000/svg">
<g clip-path="url(#clip0_1_5342)">
<path d="M64.4281 18.068C64.4281 18.402 64.6083 18.5821 64.9425 18.5821H66.7415C67.0757 18.5821 67.2554 18.402 67.2554 18.068V9.25376C67.2554 8.53426 67.7182 8.0455 68.4377 8.0455H71.3157C71.6494 8.0455 71.8297 7.8654 71.8297 7.53147V5.73221C71.8297 5.39823 71.6494 5.21813 71.3157 5.21813H67.7182C67.4357 5.21813 67.2554 5.39823 67.2554 5.73221V6.6056C67.2554 7.35043 66.8185 7.78759 66.0737 7.78759H65.8418C64.9937 7.78759 64.4281 8.35321 64.4281 9.27819V18.068ZM56.5652 7.42918C58.3642 7.42918 59.8032 8.55958 60.266 10.4358H52.8654C53.3013 8.63744 54.6634 7.42918 56.5652 7.42918ZM56.5652 4.93666C52.6335 4.93666 49.961 7.73779 49.961 11.8748C49.961 15.9349 52.5565 18.8645 56.8224 18.8645C59.6234 18.8645 61.8073 17.5793 62.7835 15.2669C62.9374 14.933 62.7582 14.7275 62.4235 14.7275H60.4706C60.2387 14.7275 60.0594 14.8307 59.905 15.0361C59.2883 15.9095 58.2088 16.3982 56.8984 16.3982C54.6882 16.3982 53.069 14.9845 52.7348 12.6975H62.6544C62.9364 12.6975 63.1167 12.5173 63.1167 12.235V11.9526C63.1177 7.89167 60.5733 4.93666 56.5652 4.93666ZM43.4853 4.91042C41.4553 4.91042 39.7846 5.78381 39.0397 7.326C38.3456 5.8354 36.9327 4.91042 35.0819 4.91042C33.4374 4.91042 32.1523 5.6046 31.4328 6.76032L31.0988 5.65525C30.9956 5.32132 30.7902 5.21813 30.4825 5.21813H29.1973C28.8633 5.21813 28.6832 5.39823 28.6832 5.73221V18.0672C28.6832 18.4011 28.8633 18.5812 29.1973 18.5812H30.9965C31.3305 18.5812 31.5106 18.4011 31.5106 18.0672V10.5887C31.5106 8.71252 32.6926 7.45361 34.4402 7.45361C36.0847 7.45361 37.1898 8.68719 37.1898 10.5371V18.0662C37.1898 18.4002 37.3699 18.5803 37.7039 18.5803H39.5031C39.8371 18.5803 40.0172 18.4002 40.0172 18.0662V10.5878C40.0172 8.71162 41.1991 7.45272 42.9468 7.45272C44.5913 7.45272 45.6964 8.6863 45.6964 10.5362V18.0653C45.6964 18.3993 45.8765 18.5794 46.2104 18.5794H48.0096C48.3436 18.5794 48.5237 18.3993 48.5237 18.0653V9.9959C48.5219 7.06987 46.6458 4.91042 43.4853 4.91042ZM25.7282 5.21903C26.0622 5.21903 26.2423 5.39913 26.2423 5.73311V18.068C26.2423 18.402 26.0622 18.5821 25.7282 18.5821H23.929C23.595 18.5821 23.4149 18.402 23.4149 18.068V5.73311C23.4149 5.39913 23.595 5.21903 23.929 5.21903H25.7282ZM24.8286 3.75467C25.8051 3.75467 26.55 3.00981 26.55 2.03326C26.55 1.05671 25.8051 0.311852 24.8286 0.311852C23.8521 0.311852 23.1072 1.05671 23.1072 2.03326C23.1072 3.0089 23.8521 3.75467 24.8286 3.75467ZM14.55 18.068C14.55 18.402 14.7301 18.5821 15.064 18.5821H16.8632C17.1972 18.5821 17.3773 18.402 17.3773 18.068V9.25376C17.3773 8.53426 17.8398 8.0455 18.5593 8.0455H21.4374C21.7714 8.0455 21.9515 7.8654 21.9515 7.53147V5.73221C21.9515 5.39823 21.7714 5.21813 21.4374 5.21813H17.8398C17.5574 5.21813 17.3773 5.39823 17.3773 5.73221V6.6056C17.3773 7.35043 16.9402 7.78759 16.1953 7.78759H15.9636C15.1156 7.78759 14.55 8.35321 14.55 9.27819V18.068ZM3.32007 3.18901H6.71219C9.10244 3.18901 10.5668 4.55111 10.5668 6.735C10.5668 8.91888 9.10244 10.281 6.71219 10.281H3.32007V3.18901ZM2.806 18.5821C3.13996 18.5821 3.32007 18.402 3.32007 18.068V12.8513H6.89229C10.9524 12.8513 13.4965 10.4873 13.4965 6.735C13.4965 2.95731 10.9524 0.59332 6.89229 0.59332H0.827562C0.493599 0.59332 0.313496 0.773429 0.313496 1.10739V18.068C0.313496 18.402 0.493599 18.5821 0.827562 18.5821H2.806Z" fill="black"/>
</g>
<defs>
<clipPath id="clip0_1_5342">
<rect width="72" height="19" fill="white"/>
</clipPath>
</defs>
</svg>
