<svg width="33" height="28" viewBox="0 0 33 28" fill="none" xmlns="http://www.w3.org/2000/svg">
<mask id="mask0_1_5525" style="mask-type:luminance" maskUnits="userSpaceOnUse" x="0" y="5" width="33" height="14">
<path d="M32.4737 5.5H0.5V19H32.4737V5.5Z" fill="white"/>
</mask>
<g mask="url(#mask0_1_5525)">
<path d="M10.6983 9.72825L6.92799 18.8638H4.25384L0.5 9.72825H3.17415L5.64891 15.9432L8.20681 9.72825H10.6983ZM16.5943 18.9996C15.6531 18.9996 14.8087 18.7987 14.0612 18.3968C13.3363 18.0163 12.7296 17.4368 12.309 16.7232C11.8883 16.0104 11.678 15.2011 11.678 14.2955C11.678 13.39 11.8885 12.5806 12.3094 11.8676C12.73 11.1544 13.3368 10.5751 14.0616 10.1948C14.809 9.79285 15.6534 9.59192 16.5947 9.59201C17.536 9.5921 18.3775 9.79302 19.1193 10.1948C19.8407 10.5769 20.4444 11.156 20.8634 11.8676C21.2842 12.5807 21.4946 13.3901 21.4946 14.2958C21.4946 15.2015 21.2842 16.0109 20.8634 16.7241C20.4445 17.436 19.8409 18.0154 19.1194 18.3978C18.3775 18.799 17.5355 18.9996 16.5943 18.9996ZM16.5943 16.8261C17.2586 16.8261 17.804 16.5969 18.2303 16.1384C18.6566 15.6799 18.8698 15.0657 18.8698 14.2959C18.8698 13.5261 18.6566 12.9118 18.2303 12.4533C17.804 11.9947 17.2586 11.7655 16.5943 11.7659C15.9299 11.7659 15.3818 11.9951 14.9499 12.4536C14.5181 12.9121 14.3021 13.5264 14.3021 14.2963C14.3021 15.0662 14.5181 15.6803 14.9499 16.1388C15.3818 16.5972 15.9296 16.8263 16.5943 16.8261ZM24.0519 9.72825H26.643V18.8638H24.0523L24.0519 9.72825ZM25.3475 8.45473C24.8715 8.45473 24.4839 8.31321 24.1848 8.03018C24.0404 7.89802 23.9257 7.73555 23.8483 7.55387C23.771 7.37219 23.733 7.17559 23.7368 6.9775C23.733 6.77935 23.7711 6.5827 23.8485 6.401C23.9259 6.21929 24.0407 6.05682 24.1852 5.92468C24.4842 5.64156 24.8718 5.5 25.3479 5.5C25.824 5.5 26.2116 5.63585 26.5106 5.90755C26.6543 6.03297 26.7691 6.18938 26.8466 6.36554C26.9241 6.5417 26.9625 6.73323 26.959 6.92637C26.9646 7.13102 26.9275 7.33453 26.8501 7.52338C26.7728 7.71223 26.6571 7.8821 26.5106 8.02168C26.2116 8.31055 25.8236 8.45473 25.3475 8.45473ZM30.8622 18.9996C30.6496 19.0046 30.4381 18.965 30.241 18.8832C30.0439 18.8014 29.8653 18.6793 29.7161 18.5242C29.5633 18.369 29.4432 18.1835 29.3631 17.9791C29.2831 17.7747 29.2449 17.5556 29.2507 17.3355C29.2507 16.8489 29.4057 16.4555 29.7158 16.1554C30.0302 15.8657 30.4385 15.7053 30.8618 15.7053C31.2851 15.7053 31.6934 15.8657 32.0079 16.1554C32.3184 16.4553 32.4737 16.8487 32.4737 17.3355C32.4796 17.5556 32.4414 17.7746 32.3615 17.979C32.2815 18.1835 32.1614 18.369 32.0087 18.5242C31.8596 18.6792 31.681 18.8014 31.4839 18.8831C31.2869 18.9649 31.0748 19.0045 30.8622 18.9996Z" fill="#1B1A1A"/>
</g>
</svg>
