<svg width="58" height="28" viewBox="0 0 58 28" fill="none" xmlns="http://www.w3.org/2000/svg">
<mask id="mask0_1_5517" style="mask-type:luminance" maskUnits="userSpaceOnUse" x="0" y="2" width="58" height="19">
<path d="M57.6346 2.5H0V21H57.6346V2.5Z" fill="white"/>
</mask>
<g mask="url(#mask0_1_5517)">
<path d="M53.65 17.727L53.7923 17.4424C54.0769 17.1578 54.2192 17.1578 54.6461 17.3001L55.6423 17.5847C55.9269 17.5847 56.0692 17.4424 56.0692 17.3001C56.0692 16.7308 53.65 17.0155 53.65 15.1655C53.65 14.1693 54.6461 13.6001 55.7846 13.6001L57.2077 13.8847C57.4923 14.027 57.6346 14.3116 57.4923 14.7385L57.35 14.8808C57.2077 15.1655 56.9231 15.3078 56.6385 15.1655L55.6423 15.0232L55.2154 15.1655C55.2154 15.877 57.6346 15.4501 57.6346 17.3001C57.6346 18.2962 56.7808 19.0078 55.5 19.0078C54.7885 19.0078 54.2192 18.7232 53.7923 18.5808C53.5077 18.2962 53.5077 18.0116 53.65 17.727ZM48.9538 19.4347L49.2385 19.577C49.5231 19.577 49.8077 19.2924 49.95 19.0078L50.0923 18.7232L48.2423 14.3116C47.9577 13.8847 48.2423 13.7424 48.5269 13.7424H49.3808C49.6654 13.7424 49.95 13.8847 49.95 14.1693L50.6615 16.0193L50.8038 16.8732L50.9462 16.0193L51.5154 14.1693C51.5154 13.8847 51.8 13.7424 52.0846 13.7424H52.7962C53.2231 13.7424 53.3654 13.8847 53.2231 14.3116L51.3731 19.4347C51.1784 19.9966 50.7717 20.46 50.2399 20.7259C49.708 20.9919 49.0932 21.0392 48.5269 20.8578C48.2423 20.7155 48.1 20.4308 48.2423 20.1462L48.3846 19.8616C48.5269 19.4347 48.8115 19.4347 48.9538 19.4347ZM45.9654 15.5924H46.1077C46.1077 15.1655 45.6808 15.0232 45.3962 15.0232L44.4 15.1655C44.1154 15.3078 43.8308 15.3078 43.6885 15.0232L43.5462 14.7385C43.4038 14.4539 43.5462 14.1693 43.8308 14.027C44.1154 13.7424 44.8269 13.6001 45.5385 13.6001C46.9615 13.6001 47.8154 14.3116 47.8154 15.5924V18.2962C47.8154 18.5808 47.6731 18.8655 47.2462 18.8655H46.8192C46.3923 18.8655 46.25 18.5808 46.25 18.2962V18.1539C46.25 18.1539 45.6808 18.8655 44.6846 18.8655C43.6885 19.0078 42.9769 18.2962 42.9769 17.4424C43.1192 16.0193 44.6846 15.5924 45.9654 15.5924ZM45.2538 17.727C45.6808 17.727 46.1077 17.1578 46.1077 16.7308V16.5885H45.9654C45.3962 16.5885 44.8269 16.7308 44.8269 17.1578C44.8269 17.4424 44.9692 17.727 45.2538 17.727ZM39.4192 13.6001C40.4154 13.6001 40.7 14.1693 40.7 14.1693V12.3193C40.7 11.8924 40.8423 11.7501 41.2692 11.7501H41.8385C42.2654 11.7501 42.4077 11.8924 42.4077 12.177V18.2962C42.4077 18.5808 42.2654 18.8655 41.8385 18.8655H41.4115C40.9846 18.8655 40.8423 18.7232 40.8423 18.2962V18.1539C40.8423 18.1539 40.4154 19.0078 39.2769 19.0078C37.9962 19.0078 37.1423 17.8693 37.1423 16.3039C37.1423 14.5962 37.9962 13.6001 39.4192 13.6001ZM39.7038 17.5847C40.2731 17.5847 40.7 17.1578 40.7 16.3039C40.7 15.5924 40.4154 15.0232 39.7038 15.0232C39.2769 15.0232 38.7077 15.4501 38.7077 16.3039C38.7077 17.0155 39.1346 17.5847 39.7038 17.5847ZM34.8654 14.3116C34.8654 13.8847 35.0077 13.7424 35.4346 13.7424H36.0038C36.4308 13.7424 36.5731 13.8847 36.5731 14.1693V18.2962C36.5731 18.5808 36.4308 18.8655 36.0038 18.8655H35.4346C35.15 18.8655 34.8654 18.7232 34.8654 18.2962V14.3116ZM34.8654 12.4616V12.177C34.8654 11.8924 35.15 11.7501 35.4346 11.7501H36.0038C36.4308 11.7501 36.5731 11.8924 36.5731 12.177V12.4616C36.5731 12.8885 36.4308 13.0308 36.0038 13.0308H35.4346C35.15 13.0308 34.8654 12.8885 34.8654 12.4616ZM31.8769 12.3193C31.8769 11.8924 32.0192 11.7501 32.4462 11.7501H33.0154C33.4423 11.7501 33.5846 11.8924 33.5846 12.177V16.8732C33.5846 17.1578 33.7269 17.3001 33.8692 17.3001C34.1538 17.4424 34.2962 17.5847 34.2962 17.8693V18.2962C34.2962 18.5808 34.1538 18.8655 33.7269 18.8655C32.8731 18.8655 31.8769 18.7232 31.8769 16.8732V12.3193ZM28.3192 13.6001C29.8846 13.6001 31.3077 14.7385 31.3077 16.3039C31.3077 17.8693 29.8846 19.0078 28.3192 19.0078C26.7538 19.0078 25.4731 17.8693 25.4731 16.3039C25.4731 14.7385 26.7538 13.6001 28.3192 13.6001ZM28.3192 17.5847C28.8885 17.5847 29.4577 17.0155 29.4577 16.3039C29.4577 15.4501 28.8885 15.0232 28.3192 15.0232C27.75 15.0232 27.1808 15.4501 27.1808 16.3039C27.1808 17.0155 27.75 17.5847 28.3192 17.5847ZM19.7808 12.3193C19.7808 11.8924 19.9231 11.7501 20.35 11.7501H20.9192C21.3462 11.7501 21.4885 11.8924 21.4885 12.177V14.4539C21.7731 13.8847 22.3423 13.6001 23.0538 13.6001C24.05 13.6001 24.9038 14.027 24.9038 15.4501V18.2962C24.9038 18.5808 24.7615 18.8655 24.3346 18.8655H23.7654C23.3385 18.8655 23.1962 18.5808 23.1962 18.2962V15.877C23.1962 15.3078 23.0538 15.1655 22.6269 15.1655C21.9154 15.1655 21.4885 15.7347 21.4885 16.4462V18.2962C21.4885 18.5808 21.3462 18.8655 20.9192 18.8655H20.35C19.9231 18.8655 19.7808 18.7232 19.7808 18.2962V12.3193ZM16.7923 13.6001C18.3577 13.6001 19.2115 14.7385 19.2115 16.0193C19.2115 16.3039 18.9269 16.5885 18.6423 16.5885H15.9385C16.0808 17.3001 16.5077 17.5847 17.0769 17.5847L18.0731 17.3001C18.3577 17.1578 18.6423 17.1578 18.7846 17.4424L18.9269 17.727C19.0692 18.0116 19.0692 18.2962 18.7846 18.4385C18.3577 18.7232 17.7885 19.0078 16.9346 19.0078C15.0846 19.0078 14.2308 17.5847 14.2308 16.3039C14.2308 14.7385 15.2269 13.6001 16.7923 13.6001ZM17.5038 15.5924C17.5038 15.1655 17.2192 14.8808 16.7923 14.8808C16.3654 14.8808 16.0808 15.1655 15.9385 15.5924H17.5038ZM8.68077 14.3116C8.53846 13.8847 8.82308 13.7424 9.25 13.7424H9.81923C10.1038 13.7424 10.3885 13.8847 10.5308 14.1693L11.1 16.4462L11.3846 17.3001L11.5269 16.4462L12.2385 14.1693C12.2385 13.8847 12.5231 13.7424 12.8077 13.7424H13.5192C13.8038 13.7424 14.0885 13.8847 13.9462 14.3116L12.5231 18.4385C12.3808 18.7232 12.2385 18.8655 11.9538 18.8655H10.8154C10.3885 18.8655 10.2462 18.7232 10.1038 18.4385L8.68077 14.3116ZM5.55 13.6001C7.25769 13.6001 8.53846 14.7385 8.53846 16.3039C8.53846 17.8693 7.25769 19.0078 5.55 19.0078C3.98462 19.0078 2.70385 17.8693 2.70385 16.3039C2.70385 14.7385 3.98462 13.6001 5.55 13.6001ZM5.55 17.5847C6.26154 17.5847 6.83077 17.0155 6.83077 16.3039C6.83077 15.4501 6.26154 15.0232 5.55 15.0232C4.98077 15.0232 4.41154 15.4501 4.41154 16.3039C4.41154 17.0155 4.98077 17.5847 5.55 17.5847ZM0 12.3193C0 11.8924 0.142308 11.7501 0.569231 11.7501H1.13846C1.56538 11.7501 1.70769 11.8924 1.70769 12.177V16.8732C1.70769 17.1578 1.85 17.3001 1.99231 17.3001C2.27692 17.4424 2.41923 17.5847 2.41923 17.8693V18.2962C2.41923 18.5808 2.27692 18.8655 1.85 18.8655C0.996154 18.8655 0 18.7232 0 16.8732V12.3193Z" fill="#1B1A1A"/>
<path fill-rule="evenodd" clip-rule="evenodd" d="M6.97317 10.6115C7.5424 11.75 8.68086 12.1769 10.2462 11.8923L10.6732 11.75C11.6693 11.4654 12.5232 10.7539 12.6655 9.75773C12.8078 8.61927 12.5232 7.76542 11.6693 7.05388C10.6732 6.48465 9.67702 6.48465 8.68086 6.76927C6.97317 7.19619 6.11932 9.04619 6.97317 10.6115ZM9.10779 5.63081C9.10779 5.63081 9.81932 2.64235 8.25394 2.50004C6.83086 2.35773 7.5424 5.34619 9.10779 5.63081ZM3.70009 5.06158C4.55394 4.77696 5.97702 7.19619 5.97702 7.19619C4.69625 7.62312 3.13086 6.62696 2.84625 6.34235C2.56163 6.05773 2.84625 5.34619 3.70009 5.06158ZM13.9462 3.92312C12.5232 3.21158 11.8116 6.48465 11.8116 6.48465C11.8116 6.48465 14.0886 5.63081 14.0886 5.20389C14.0886 5.12366 14.179 5.04344 14.2802 4.95366C14.5381 4.72491 14.866 4.4341 13.9462 3.92312ZM14.0886 8.61927C14.0886 8.61927 15.3693 7.05388 16.5078 8.05004C17.6462 9.04619 15.3693 9.75773 14.0886 8.61927ZM2.84625 10.0423C2.98856 8.90389 5.12317 10.0423 5.12317 10.0423C4.26932 10.7539 3.13086 11.4654 3.27317 10.8962C3.27317 10.6649 3.15568 10.692 3.03529 10.7199C2.85939 10.7605 2.67729 10.8026 2.84625 10.0423ZM10.2462 8.05011L9.5347 8.76164C9.47751 8.72351 9.42542 8.68794 9.37707 8.65491C9.06454 8.44145 8.90827 8.33472 8.53855 8.33472C8.11163 8.33472 7.82701 8.61934 7.82701 9.18857C7.6847 9.47318 7.96932 9.90011 8.11163 10.0424C8.68086 10.7539 9.25009 11.1808 9.96163 11.4655H10.2462L11.2424 9.90011C11.527 9.47318 11.527 9.04626 11.527 8.61934C11.3847 8.19241 11.1001 7.9078 10.8155 7.9078L10.2462 8.05011Z" fill="#1B1A1A"/>
<path d="M18.5 13.0308L17.6462 12.7462L16.9346 12.6039L16.2231 12.4616L16.0808 12.3193L14.9423 12.177H14.3731L13.3769 12.0347H12.2385L11.8116 11.8924H9.96156L9.81925 11.75L7.96925 11.8924L7.11541 12.0347H6.68848L6.54618 12.177H6.11925L5.83464 12.3193L4.83848 12.6039L3.84233 13.0308L3.70002 13.1731H2.84618V12.8885L3.70002 12.177L4.12695 12.0347L5.55002 11.4654L6.40387 11.3231L7.40002 11.0385H8.25387L8.39618 11.1808L8.68079 11.0385L9.67694 10.8962H12.6654L12.8077 11.0385H14.3731V11.1808L14.5154 11.3231V11.1808C14.5154 11.0385 14.6577 10.8962 14.8 11.0385L15.6539 11.1808H16.3654L17.9308 11.4654L18.5 11.8924L18.6423 12.3193L18.7846 12.4616V12.8885C18.7846 13.1731 18.6423 13.1731 18.5 13.0308ZM9.53464 11.1808H9.39233L9.53464 11.3231V11.1808ZM12.3808 11.1808H9.81925V11.3231H12.5231V11.1808H12.3808ZM12.8077 11.3231V11.1808H12.6654V11.3231H12.8077ZM13.3769 11.3231V11.1808L13.2346 11.3231H13.3769ZM14.2308 11.1808H14.0885V11.3231H14.2308V11.1808ZM15.2269 11.6077V11.75L15.3693 11.6077H15.2269ZM15.3693 11.3231H15.2269L15.3693 11.4654V11.3231Z" fill="#1B1A1A"/>
</g>
</svg>
