<svg width="48" height="28" viewBox="0 0 48 28" fill="none" xmlns="http://www.w3.org/2000/svg">
<path d="M46.5743 19.111C47.3624 19.111 48 18.4651 48 17.6666C48 16.8591 47.3624 16.2221 46.5743 16.2221C45.7773 16.2221 45.1486 16.8591 45.1486 17.6666C45.1486 18.4651 45.7773 19.111 46.5743 19.111Z" fill="#1B1A1A"/>
<path fill-rule="evenodd" clip-rule="evenodd" d="M6.1441 18.8512L9.3696 9.20692H6.69632L4.75052 16.5301H4.69794L2.74338 9.20692H0L3.25174 18.8512H6.1441ZM13.0337 19.0581C15.3564 19.0581 17.0392 17.7896 17.3197 15.9003H14.9707C14.734 16.6381 14.0153 17.1149 13.0775 17.1149C11.7715 17.1149 10.9213 16.1702 10.9213 14.7938V14.6319H17.3985V13.8311C17.3985 10.8983 15.6719 9 12.9373 9C10.1588 9 8.40587 10.9972 8.40587 14.074C8.40587 17.1599 10.1413 19.0581 13.0337 19.0581ZM14.9732 13.0214H10.9853C11.0729 11.8159 11.8793 10.9432 13.0012 10.9432C14.1406 10.9432 14.9207 11.7889 14.9732 13.0214ZM22.2679 19.0581C24.5906 19.0581 26.2735 17.7896 26.554 15.9003H24.205C23.9683 16.6381 23.2496 17.1149 22.3118 17.1149C21.0058 17.1149 20.1556 16.1702 20.1556 14.7938V14.6319H26.6328V13.8311C26.6328 10.8983 24.9062 9 22.1716 9C19.3931 9 17.6402 10.9972 17.6402 14.074C17.6402 17.1599 19.3756 19.0581 22.2679 19.0581ZM24.2075 13.0214H20.2195C20.3072 11.8159 21.1136 10.9432 22.2355 10.9432C23.3749 10.9432 24.1549 11.7889 24.2075 13.0214ZM29.8135 22V17.2318H29.8661C30.3658 18.3204 31.4175 19.0041 32.7848 19.0041C35.1338 19.0041 36.5888 17.1329 36.5888 14.0291C36.5888 10.9163 35.125 9.05398 32.741 9.05398C31.3824 9.05398 30.3394 9.75571 29.8311 10.8893H29.7785V9.20692H27.2542V22H29.8135ZM31.8821 16.89C30.6287 16.89 29.8048 15.7744 29.8048 14.0291C29.8048 12.3017 30.6287 11.1592 31.8821 11.1592C33.1617 11.1592 33.9681 12.2837 33.9681 14.0291C33.9681 15.7834 33.1617 16.89 31.8821 16.89ZM40.4925 19.0581C42.9729 19.0581 44.6733 17.8076 44.6733 15.9093C44.6733 14.4699 43.9107 13.7052 42.0263 13.2734L40.2295 12.8775C39.4056 12.6796 39.0024 12.3557 39.0024 11.8789C39.0024 11.2581 39.5809 10.8443 40.4661 10.8443C41.4128 10.8443 42.0175 11.3211 42.0701 12.0948H44.4278C44.3927 10.2235 42.8589 9 40.5012 9C38.0909 9 36.5395 10.2055 36.5395 12.0408C36.5395 13.4623 37.451 14.4159 39.2303 14.8298L40.9657 15.2256C41.8072 15.4325 42.1227 15.7024 42.1227 16.1882C42.1227 16.818 41.5355 17.2138 40.5626 17.2138C39.5458 17.2138 38.9236 16.746 38.8008 15.9363H36.3029C36.4431 17.8166 37.9857 19.0581 40.4925 19.0581Z" fill="#1B1A1A"/>
</svg>
