<svg width="44" height="28" viewBox="0 0 44 28" fill="none" xmlns="http://www.w3.org/2000/svg">
<path fill-rule="evenodd" clip-rule="evenodd" d="M4.16736 11.5007C3.62552 11.6896 3.14533 11.9917 2.64026 12.3876V9.45782C2.64026 8.50932 2.25113 7.93242 1.3739 7.57666C1.0402 7.44092 1.004 7.46411 1.004 7.821C1.00383 8.64463 1.00445 9.46826 1.00507 10.2919C1.00648 12.1588 1.00789 14.0257 1.00004 15.8926C0.994954 17.0758 1.45252 18.0486 2.3009 18.8404C3.69113 20.1413 5.86414 20.3596 7.5151 19.3919C9.20792 18.3987 10.0229 16.4876 9.57046 14.5798C9.00204 12.1908 6.41502 10.7157 4.16736 11.5007ZM5.36585 12.9181C6.84827 12.93 8.06429 14.1602 8.05468 15.6381C8.05693 15.9965 7.98797 16.3519 7.8518 16.6835C7.71564 17.0151 7.51497 17.3164 7.26144 17.5698C7.00792 17.8233 6.70659 18.0239 6.37493 18.1599C6.04327 18.296 5.6879 18.3649 5.32942 18.3625C4.97094 18.3601 4.6165 18.2866 4.28667 18.1462C3.95683 18.0058 3.65817 17.8012 3.408 17.5445C3.15783 17.2877 2.96115 16.9838 2.82936 16.6504C2.69756 16.3171 2.63329 15.9608 2.64026 15.6024C2.65101 14.1285 3.88343 12.9062 5.36585 12.9181ZM31.2236 11.5691V15.5729C31.2228 16.9081 31.2232 18.2427 31.2247 19.5767C31.2247 19.9579 31.3418 20.0518 31.7174 19.9755C31.9391 19.924 32.1522 19.8403 32.3497 19.7272C32.7094 19.5354 32.8864 19.2685 32.8791 18.8318C32.8587 17.6097 32.8641 16.3898 32.8696 15.1694L32.8717 14.6725C32.8763 13.5933 33.9215 12.7432 34.9848 12.9451C35.9174 13.1216 36.5181 13.858 36.5221 14.8455C36.5262 16.0046 36.5262 17.1633 36.5221 18.3217C36.5215 18.5366 36.5617 18.7317 36.7048 18.898C36.8082 19.0219 36.9471 19.1112 37.1028 19.154C37.2585 19.1968 37.4235 19.1909 37.5758 19.1372C37.9202 19.0207 38.1165 18.7543 38.1165 18.355V14.9411C38.1098 14.7239 38.1315 14.5068 38.1809 14.2952C38.4208 13.4004 39.2912 12.8054 40.1741 12.9333C41.1475 13.0735 41.7951 13.8863 41.7804 14.901C41.7654 15.8222 41.7637 16.7426 41.7621 17.6642V17.6654C41.7613 18.0986 41.7605 18.532 41.7583 18.9659C41.7529 19.0749 41.7733 19.1836 41.8178 19.2833C41.8623 19.3829 41.9297 19.4707 42.0145 19.5394C42.2952 19.771 42.6315 19.9252 42.9902 19.9868C43.3007 20.0394 43.4138 19.9381 43.4138 19.6293L43.4159 18.9371C43.4202 17.5539 43.4245 16.1705 43.4138 14.7873C43.4053 13.7443 43.0332 12.8433 42.2357 12.1527C40.8217 10.9294 38.8229 11.0035 37.4847 12.3151C37.4728 12.3267 37.4616 12.3385 37.4508 12.3498C37.3748 12.4296 37.3185 12.4887 37.1793 12.3569C35.9044 11.1471 34.4435 10.9605 32.8904 11.7947C32.7761 11.8564 32.7009 11.8909 32.6116 11.7557C32.3848 11.4118 32.0414 11.2636 31.6455 11.211C31.2768 11.1618 31.2236 11.1997 31.2236 11.5691ZM15.9764 16.4473C15.7111 16.4473 15.4459 16.448 15.1806 16.4487C14.4844 16.4505 13.7881 16.4523 13.0918 16.4417C12.7972 16.4366 12.7966 16.5237 12.9007 16.7533C13.3532 17.7516 14.4199 18.3969 15.5228 18.3523C16.4311 18.3149 17.2761 18.0977 18.0357 17.5825C18.0697 17.5593 18.1051 17.5379 18.1415 17.5186C18.3219 17.4258 18.5176 17.3449 18.6923 17.4954C18.8671 17.6458 18.849 17.8472 18.7811 18.0423C18.5261 18.7776 17.974 19.2499 17.2993 19.5457C15.6732 20.2572 14.0929 20.1384 12.6846 19.0264C11.2763 17.9145 10.7707 16.4174 11.1513 14.6861C11.5319 12.9548 12.6575 11.8372 14.3854 11.4085C17.0623 10.7433 19.6889 12.8038 19.7155 15.5548C19.7212 16.1046 19.3897 16.444 18.832 16.4462C18.2157 16.4484 17.5997 16.448 16.9838 16.4476C16.648 16.4474 16.3121 16.4471 15.9764 16.4473ZM17.935 14.8326C17.9395 14.7967 17.9395 14.7604 17.935 14.7246C17.6403 13.7478 16.564 12.9407 15.5262 12.9147C14.309 12.8875 13.2276 13.5798 12.8532 14.6114C12.791 14.7839 12.8243 14.8309 13.0008 14.8292C13.3734 14.8258 13.7459 14.8269 14.1184 14.8281C14.3045 14.8286 14.4906 14.8292 14.6766 14.8292L17.935 14.8326ZM29.5671 18.1533C29.5679 17.9507 29.5687 17.7479 29.5687 17.5452C29.5687 17.3699 29.5681 17.1947 29.5676 17.0194C29.5663 16.6055 29.565 16.1917 29.5709 15.7788C29.5851 14.3784 29.0342 13.2274 28.0088 12.3021C26.5778 11.0109 24.32 10.9453 22.6702 12.1245C21.0362 13.2925 20.4219 15.5011 21.2138 17.3512C22.2935 19.8698 25.2838 20.7442 27.6734 19.2278C27.8861 19.0949 27.9816 19.1175 28.0948 19.3211C28.3408 19.7549 28.7039 20.0061 29.2259 19.9998C29.4686 19.997 29.5789 19.9195 29.5732 19.6548C29.5631 19.1544 29.5651 18.654 29.5671 18.1533ZM25.2057 12.9282C26.6791 12.9147 27.9075 14.1431 27.9121 15.6295C27.9164 16.3455 27.6368 17.0341 27.1343 17.5442C26.6319 18.0544 25.9477 18.3446 25.2317 18.3511C23.7442 18.3664 22.4999 17.1295 22.4999 15.6403C22.5022 14.1663 23.7323 12.9418 25.2057 12.9282Z" fill="#1B1A1A"/>
</svg>
