<svg width="107" height="28" viewBox="0 0 107 28" fill="none" xmlns="http://www.w3.org/2000/svg">
<path fill-rule="evenodd" clip-rule="evenodd" d="M21.1235 21C17.2352 21 14.0824 17.8656 14.0824 14C14.0824 10.1344 17.2352 7 21.1235 7C25.0118 7 28.1647 10.1344 28.1647 14C28.1647 17.8656 25.0118 21 21.1235 21ZM12.3221 21C8.43377 21 5.28088 17.8656 5.28088 14C5.28088 10.1344 8.43377 7 12.3221 7V21ZM3.52059 20.0612V7.93878C1.41606 9.149 0 11.4092 0 14C0 16.59 1.41606 18.8502 3.52059 20.0612Z" fill="#1B1A1A"/>
<path fill-rule="evenodd" clip-rule="evenodd" d="M36.819 10.4997V11.5404C37.1475 10.8466 37.75 10.4997 38.6238 10.4997C38.8805 10.4997 39.1113 10.5277 39.3162 10.5837C39.5204 10.639 39.7035 10.7113 39.8639 10.7992L39.2497 12.3314C39.13 12.2505 38.9955 12.1852 38.8468 12.1331C38.6982 12.081 38.5073 12.0553 38.2757 12.0553C37.8016 12.0553 37.4425 12.1891 37.1976 12.4566C36.9527 12.7234 36.8307 13.1605 36.8307 13.7664V17.4997H35.2057V10.4997H36.819ZM50.0877 17.3566C49.6417 17.1645 49.2552 16.9055 48.9259 16.5788C48.5973 16.2514 48.3391 15.8664 48.1498 15.4238C47.962 14.9805 47.8666 14.5084 47.8666 14.006C47.8666 13.4957 47.9612 13.0182 48.1498 12.5756C48.3383 12.1331 48.5973 11.7465 48.9259 11.4152C49.2545 11.0838 49.6425 10.8248 50.0877 10.6374C50.5336 10.45 51.0124 10.3558 51.5264 10.3558C51.9192 10.3558 52.29 10.4103 52.6397 10.5176C52.9886 10.6257 53.3078 10.7743 53.5965 10.9664C53.8852 11.1577 54.1379 11.3856 54.3554 11.6485C54.5713 11.9122 54.7481 12.2031 54.8843 12.522L53.4283 13.1325C53.2672 12.7491 53.0207 12.4442 52.6874 12.2171C52.3549 11.9892 51.9716 11.8756 51.5381 11.8756C51.2409 11.8756 50.967 11.9316 50.7135 12.0436C50.4608 12.1548 50.2402 12.3065 50.0517 12.4978C49.8631 12.69 49.7168 12.9147 49.612 13.1745C49.5079 13.4335 49.4555 13.7112 49.4555 14.006C49.4555 14.293 49.5079 14.566 49.612 14.8257C49.7168 15.0847 49.8631 15.3103 50.0517 15.5016C50.2402 15.693 50.4632 15.8446 50.7198 15.9566C50.9764 16.0678 51.2534 16.1238 51.5499 16.1238C52.0076 16.1238 52.3987 16.0025 52.7234 15.7583C53.0489 15.5156 53.2914 15.2022 53.4518 14.8195L54.9085 15.4417C54.7716 15.7606 54.5956 16.0562 54.3789 16.3276C54.1622 16.5983 53.911 16.8316 53.6262 17.0276C53.3415 17.2228 53.0223 17.3745 52.6694 17.4819C52.3166 17.59 51.9356 17.6436 51.5264 17.6436C51.0124 17.6436 50.5328 17.5488 50.0877 17.3566ZM57.0976 8.64471V11.3374C57.3377 11.0341 57.6374 10.7953 57.9941 10.6195C58.3509 10.4437 58.7546 10.3558 59.2036 10.3558C60.0783 10.3558 60.7621 10.6195 61.2558 11.1461C61.7494 11.6726 61.9959 12.4061 61.9959 13.3472V17.5005H60.3349V13.5261C60.3349 12.9762 60.2019 12.543 59.9383 12.228C59.6723 11.913 59.2756 11.7551 58.746 11.7551C58.5214 11.7551 58.3086 11.7971 58.1084 11.8811C57.9073 11.9651 57.7328 12.0864 57.5842 12.2466C57.4363 12.4053 57.3197 12.6044 57.236 12.844C57.1515 13.0835 57.1093 13.355 57.1093 13.6583V17.4997H55.4726V8.64471H57.0976ZM67.3511 15.9924C67.6077 15.8804 67.8283 15.7248 68.0129 15.5257C68.1976 15.3258 68.3439 15.0948 68.4518 14.8312C68.5614 14.5683 68.6146 14.2852 68.6146 13.9818C68.6146 13.6863 68.5606 13.4078 68.4518 13.1442C68.3439 12.8813 68.1976 12.6518 68.0129 12.4558C67.8283 12.2614 67.6077 12.1074 67.3511 11.9954C67.0945 11.8842 66.8128 11.8282 66.5085 11.8282C66.2112 11.8282 65.9327 11.8842 65.6714 11.9954C65.4108 12.1074 65.184 12.2591 64.9915 12.4504C64.799 12.6417 64.6488 12.8688 64.5401 13.1325C64.4321 13.3954 64.3781 13.6785 64.3781 13.9818C64.3781 14.2852 64.4321 14.5706 64.5401 14.8374C64.6488 15.105 64.799 15.336 64.9915 15.5312C65.184 15.7272 65.4108 15.8804 65.6721 15.9924C65.9327 16.1036 66.212 16.1596 66.5085 16.1596C66.8136 16.1596 67.0945 16.1036 67.3511 15.9924ZM64.986 17.3979C64.5722 17.2345 64.2013 16.9973 63.8719 16.6862C63.5434 16.3751 63.2781 15.994 63.0779 15.5428C62.8776 15.0925 62.7766 14.58 62.7766 14.006C62.7766 13.4234 62.8752 12.907 63.0716 12.4558C63.2687 12.0055 63.5293 11.6244 63.8539 11.3133C64.1794 11.0022 64.5526 10.765 64.9735 10.6016C65.3952 10.4383 65.8263 10.3558 66.2675 10.3558C66.733 10.3558 67.1625 10.4437 67.5553 10.6195C67.9488 10.7953 68.2735 11.0341 68.5301 11.3374V10.4997H70.1558V17.4997H68.5301V16.5905C68.2735 16.9172 67.9449 17.1746 67.5435 17.3621C67.1422 17.5503 66.7088 17.6436 66.2433 17.6436C65.8184 17.6436 65.3983 17.562 64.986 17.3979ZM72.6484 10.4997V11.5404C72.977 10.8466 73.5794 10.4997 74.4541 10.4997C74.7107 10.4997 74.9415 10.5277 75.1464 10.5837C75.3498 10.639 75.5329 10.7113 75.6941 10.7992L75.0799 12.3314C74.9595 12.2505 74.8249 12.1852 74.6762 12.1331C74.5276 12.081 74.3375 12.0553 74.1051 12.0553C73.631 12.0553 73.2719 12.1891 73.0278 12.4566C72.7829 12.7234 72.6601 13.1605 72.6601 13.7664V17.4997H71.0352V10.4997H72.6484ZM81.3771 14.8312C81.2691 15.0941 81.1228 15.3258 80.9382 15.525C80.7536 15.7248 80.5329 15.8804 80.2763 15.9916C80.0189 16.1036 79.7381 16.1596 79.4337 16.1596C79.1364 16.1596 78.8579 16.1036 78.5966 15.9916C78.3361 15.8804 78.1092 15.7272 77.9167 15.5312C77.7243 15.336 77.5741 15.1042 77.4653 14.8374C77.3574 14.5698 77.3026 14.2852 77.3026 13.9818C77.3026 13.6785 77.3574 13.3954 77.4653 13.1317C77.5741 12.8688 77.7235 12.6417 77.9167 12.4496C78.1092 12.2583 78.3361 12.1074 78.5974 11.9954C78.8579 11.8834 79.1364 11.8274 79.4337 11.8274C79.7388 11.8274 80.0189 11.8834 80.2763 11.9954C80.5329 12.1066 80.7536 12.2598 80.9382 12.4558C81.1228 12.6511 81.2691 12.8805 81.3771 13.1442C81.4858 13.4071 81.5398 13.6863 81.5398 13.9818C81.5398 14.2852 81.4851 14.5675 81.3771 14.8312ZM83.0545 10.4997H81.4295L81.4342 11.3864C81.176 11.0683 80.8498 10.8171 80.4555 10.632C80.0612 10.4461 79.6317 10.3543 79.1662 10.3566C78.7249 10.359 78.2938 10.443 77.8729 10.6086C77.4528 10.7751 77.0812 11.0131 76.7581 11.3265C76.4342 11.64 76.1752 12.0218 75.9812 12.4737C75.7872 12.9248 75.6917 13.4421 75.6941 14.0246C75.6972 14.5986 75.8005 15.1112 76.0031 15.5607C76.2065 16.0103 76.4725 16.3898 76.8042 16.6994C77.1344 17.009 77.5068 17.2438 77.9207 17.4056C78.3353 17.5666 78.7546 17.6467 79.1802 17.6444C79.6536 17.6421 80.0901 17.5433 80.4907 17.3504C80.8905 17.1567 81.2183 16.8915 81.4733 16.5555L81.478 16.5578C81.4905 19.1012 80.5306 19.4979 78.6694 19.508L78.6764 20.9951C79.1646 20.992 79.4908 21.0067 80.0385 20.9951C81.8097 20.9562 83.0623 19.0639 83.0545 17.5013V10.4997ZM86.266 12.1751C85.9085 12.4387 85.6581 12.7856 85.5134 13.2157H89.5097C89.3892 12.7452 89.1568 12.3882 88.8118 12.1455C88.4668 11.9021 88.0412 11.78 87.5366 11.78C87.046 11.78 86.6228 11.9122 86.266 12.1751ZM87.596 17.6436C87.0421 17.6436 86.5367 17.5503 86.079 17.3621C85.6221 17.1754 85.231 16.918 84.9055 16.5905C84.5808 16.2638 84.3281 15.8788 84.1474 15.4355C83.9675 14.993 83.8767 14.5201 83.8767 14.0176C83.8767 13.5074 83.9706 13.0283 84.1599 12.5818C84.3477 12.1354 84.6066 11.7481 84.936 11.4214C85.2646 11.0947 85.6519 10.835 86.0978 10.6436C86.543 10.4515 87.0226 10.3558 87.5358 10.3558C88.0576 10.3558 88.5411 10.4461 88.9863 10.6257C89.4322 10.8046 89.8148 11.0558 90.1363 11.3794C90.4571 11.7022 90.7074 12.0833 90.8874 12.522C91.0689 12.9606 91.1589 13.4397 91.1589 13.9577V14.5683H85.4297C85.5416 15.063 85.7864 15.462 86.1635 15.7645C86.5406 16.0678 87.0186 16.2195 87.5952 16.2195H88.2626V17.6436H87.596ZM42.2947 12.1603C41.9402 12.4216 41.6922 12.7662 41.5483 13.1932H45.5125C45.3928 12.7265 45.162 12.3718 44.8201 12.1307C44.4774 11.8896 44.0557 11.7683 43.5542 11.7683C43.0692 11.7683 42.6491 11.899 42.2947 12.1603ZM42.11 17.3061C41.6563 17.1194 41.2682 16.8643 40.9459 16.54C40.6228 16.2156 40.3724 15.8337 40.1932 15.3951C40.0141 14.9556 39.9249 14.4866 39.9249 13.9881C39.9249 13.4825 40.0188 13.0073 40.205 12.564C40.3927 12.1206 40.6494 11.7372 40.9756 11.4128C41.3018 11.0877 41.686 10.8311 42.1272 10.6413C42.5693 10.4507 43.0449 10.3558 43.5542 10.3558C44.0714 10.3558 44.551 10.4453 44.9938 10.6234C45.435 10.8015 45.8152 11.0504 46.1337 11.3708C46.4513 11.6913 46.7001 12.0693 46.8792 12.5048C47.0592 12.9404 47.1484 13.4148 47.1484 13.929V14.5341H41.4646C41.5757 15.0248 41.8182 15.4207 42.1922 15.721C42.5669 16.022 43.0402 16.1721 43.6129 16.1721C44.0667 16.1721 44.461 16.0616 44.7951 15.84C45.1299 15.6183 45.3803 15.322 45.5477 14.9494L46.873 15.7093C46.5702 16.2708 46.1462 16.7243 45.6009 17.0681C45.0556 17.4126 44.3937 17.5845 43.6137 17.5845C43.0637 17.5845 42.5638 17.4912 42.11 17.3061ZM89.9196 16.4163C90.0487 16.2848 90.2247 16.2195 90.4469 16.2195C90.6691 16.2195 90.8443 16.2848 90.9695 16.4163C91.0963 16.547 91.1589 16.7204 91.1589 16.9358C91.1589 17.1458 91.0947 17.3162 90.9656 17.4468C90.8365 17.5783 90.6605 17.6436 90.4383 17.6436C90.2153 17.6436 90.0409 17.5783 89.9149 17.4468C89.7897 17.3162 89.7264 17.1458 89.7264 16.9358C89.7264 16.7204 89.7905 16.547 89.9196 16.4163ZM93.6608 17.5697C93.4378 17.4741 93.2438 17.3442 93.0795 17.1808C92.9152 17.0175 92.7861 16.8246 92.6915 16.6037C92.5976 16.3821 92.5507 16.1456 92.5507 15.8944C92.5507 15.6393 92.5976 15.4005 92.6915 15.1796C92.7854 14.958 92.9152 14.7651 93.0795 14.5994C93.2438 14.4337 93.4378 14.3038 93.6608 14.2105C93.883 14.1172 94.1224 14.0697 94.3798 14.0697C94.5762 14.0697 94.7616 14.097 94.9361 14.1506C95.1113 14.2043 95.2701 14.279 95.4149 14.3746C95.5588 14.4711 95.6855 14.5846 95.7943 14.7161C95.9023 14.8483 95.9899 14.993 96.0587 15.1524L95.3311 15.4581C95.2506 15.266 95.1269 15.1135 94.9603 15C94.7937 14.8864 94.6028 14.8296 94.3861 14.8296C94.2374 14.8296 94.0997 14.8576 93.973 14.9128C93.847 14.9688 93.7367 15.0451 93.642 15.1407C93.5482 15.2364 93.4746 15.3492 93.423 15.4791C93.3706 15.6082 93.3447 15.7466 93.3447 15.8944C93.3447 16.0383 93.3706 16.1744 93.423 16.3043C93.4746 16.4342 93.5482 16.547 93.642 16.6426C93.7367 16.7383 93.8478 16.8137 93.9761 16.8697C94.1052 16.9257 94.2437 16.9537 94.3915 16.9537C94.6208 16.9537 94.8156 16.8931 94.9783 16.771C95.141 16.6496 95.2623 16.4925 95.3429 16.3012L96.0705 16.6123C96.0024 16.7725 95.914 16.9195 95.806 17.0556C95.6973 17.191 95.5721 17.3076 95.4297 17.4056C95.2873 17.5028 95.1277 17.5791 94.9517 17.6327C94.7749 17.6864 94.584 17.7128 94.3798 17.7128C94.1232 17.7128 93.8838 17.6654 93.6608 17.5697ZM98.725 16.8697C98.8502 16.8137 98.9581 16.7375 99.0504 16.6426C99.142 16.547 99.2147 16.4342 99.2664 16.3043C99.3188 16.1744 99.3446 16.0383 99.3446 15.8944C99.3446 15.7466 99.3188 15.6082 99.2664 15.4783C99.2147 15.3492 99.142 15.2372 99.0504 15.1407C98.9581 15.0451 98.8494 14.9696 98.725 14.9136C98.6006 14.8576 98.4668 14.8296 98.3221 14.8296C98.1773 14.8296 98.042 14.8576 97.9153 14.9136C97.7901 14.9688 97.6805 15.0451 97.5906 15.1407C97.5006 15.2364 97.4294 15.3492 97.377 15.4783C97.3246 15.6082 97.2988 15.7474 97.2988 15.8944C97.2988 16.0383 97.3246 16.1744 97.377 16.3043C97.4294 16.4342 97.5006 16.547 97.5906 16.6426C97.6805 16.7383 97.7893 16.8137 97.9153 16.8697C98.042 16.9257 98.1773 16.9537 98.3221 16.9537C98.466 16.9537 98.6006 16.9257 98.725 16.8697ZM97.6086 17.5728C97.3864 17.4795 97.1924 17.3496 97.0281 17.184C96.8638 17.0183 96.7339 16.8246 96.64 16.6037C96.5461 16.3821 96.4984 16.1456 96.4984 15.8944C96.4984 15.6393 96.5454 15.4013 96.6392 15.1796C96.7339 14.958 96.8638 14.7643 97.0281 14.5994C97.1924 14.4337 97.3864 14.3038 97.6086 14.2105C97.8315 14.1172 98.0694 14.0697 98.3221 14.0697C98.5748 14.0697 98.811 14.1164 99.0325 14.2097C99.2523 14.3038 99.4463 14.4337 99.613 14.5986C99.7796 14.7643 99.9103 14.958 100.004 15.1796C100.098 15.4013 100.145 15.6385 100.145 15.8952C100.145 16.1456 100.098 16.3821 100.004 16.603C99.9103 16.8246 99.7796 17.0183 99.613 17.184C99.4463 17.3496 99.2531 17.4795 99.0325 17.5728C98.811 17.6662 98.5748 17.7128 98.3221 17.7128C98.0694 17.7128 97.8315 17.6662 97.6086 17.5728ZM101.38 14.1413V14.5481C101.492 14.4003 101.633 14.2836 101.804 14.1981C101.974 14.1125 102.168 14.0697 102.385 14.0697C102.662 14.0697 102.895 14.1226 103.086 14.2284C103.276 14.3342 103.424 14.4827 103.528 14.6741C103.648 14.4905 103.808 14.3443 104.007 14.2346C104.205 14.125 104.431 14.0697 104.683 14.0697C105.157 14.0697 105.514 14.2004 105.755 14.4617C105.995 14.7231 106.115 15.0808 106.115 15.5351V17.6413H105.286V15.602C105.286 15.3468 105.221 15.1446 105.093 14.9953C104.964 14.8452 104.773 14.7705 104.521 14.7705C104.3 14.7705 104.115 14.846 103.968 14.9976C103.819 15.1493 103.745 15.3787 103.745 15.686V17.6421H102.92V15.5778C102.92 15.3274 102.857 15.1298 102.734 14.9867C102.609 14.8421 102.425 14.7705 102.18 14.7705C101.951 14.7705 101.762 14.8483 101.611 15.0038C101.461 15.1594 101.386 15.3927 101.386 15.7038V17.6421H100.573V14.1421L101.38 14.1413Z" fill="#1B1A1A"/>
</svg>
