<svg width="126" height="28" viewBox="0 0 126 28" fill="none" xmlns="http://www.w3.org/2000/svg">
<mask id="mask0_1_5534" style="mask-type:luminance" maskUnits="userSpaceOnUse" x="0" y="10" width="126" height="11">
<path d="M125.8 10H0.400024V21H125.8V10Z" fill="white"/>
</mask>
<g mask="url(#mask0_1_5534)">
<path d="M49.9792 10.0097C50.1618 10.0097 50.3114 10.1593 50.3114 10.3419C50.3114 10.3911 50.2951 10.4246 50.2784 10.4585L46.2603 20.4337C46.2097 20.5512 46.0773 20.633 45.9453 20.633C45.7953 20.633 45.6791 20.5503 45.6298 20.4337L41.8938 11.2214L38.1916 20.4337C38.1415 20.5512 38.0086 20.633 37.8766 20.633C37.7433 20.633 37.6104 20.5675 37.5607 20.45L33.543 10.4585C33.5263 10.425 33.5087 10.392 33.5087 10.3419C33.5087 10.1593 33.6592 10.0097 33.8413 10.0097C33.9738 10.0097 34.1071 10.0924 34.1568 10.2094L37.859 19.4217L41.595 10.2094C41.6439 10.0924 41.7772 10.0097 41.9096 10.0097C42.0425 10.0097 42.1587 10.0924 42.2251 10.2094C43.2881 12.8318 44.8488 16.7333 45.9449 19.4217L49.6637 10.2094C49.7139 10.0928 49.8463 10.0097 49.9792 10.0097ZM10.6925 10.0097C10.5099 10.0097 10.3616 10.1593 10.3616 10.3419V19.5053L0.996224 10.143C0.913064 10.0594 0.829904 10.0097 0.730904 10.0097C0.548744 10.0097 0.400024 10.1593 0.400024 10.3419V20.3017C0.400024 20.4843 0.548744 20.633 0.730904 20.633C0.913064 20.633 1.06178 20.4843 1.06178 20.3017V11.1392L10.4276 20.5006C10.4932 20.5666 10.5763 20.633 10.6925 20.633C10.8742 20.633 11.0234 20.4843 11.0234 20.3017V10.3419C11.0234 10.1593 10.8742 10.0097 10.6925 10.0097ZM27.2937 10.6719C27.4763 10.6719 27.6255 10.5236 27.6255 10.3419C27.6255 10.1597 27.4763 10.0101 27.2937 10.0101H18.9935C18.8114 10.0101 18.6622 10.1601 18.6622 10.3419V20.3026C18.6622 20.4848 18.8114 20.6335 18.9935 20.6335H27.2937C27.4763 20.6335 27.6255 20.4848 27.6255 20.3026C27.6255 20.1209 27.4763 19.9717 27.2937 19.9717H19.3244V15.6535H25.634C25.8162 15.6535 25.9649 15.5039 25.9649 15.3222C25.9649 15.1409 25.8162 14.9913 25.634 14.9913H19.3244V10.6719H27.2937ZM102.832 20.0025C105.414 20.0025 107.495 17.9204 107.495 15.3381C107.495 12.7566 105.414 10.675 102.832 10.675C100.25 10.675 98.1671 12.7566 98.1671 15.3385C98.1671 17.9209 100.25 20.0025 102.832 20.0025ZM102.832 10.0092C105.779 10.0092 108.161 12.3918 108.161 15.3385C108.161 18.2874 105.779 20.6678 102.832 20.6678C99.8827 20.6678 97.501 18.2874 97.501 15.3385C97.501 12.3914 99.8827 10.0092 102.832 10.0092ZM125.661 20.0694L119.933 14.6103L125.658 10.6059C125.808 10.5016 125.845 10.2921 125.741 10.1417C125.636 9.99163 125.426 9.95511 125.276 10.0594L115.8 16.6836V10.3423C115.8 10.1588 115.65 10.0088 115.467 10.0088C115.284 10.0088 115.133 10.1588 115.133 10.3423V20.3356C115.133 20.5191 115.284 20.6682 115.467 20.6682C115.659 20.6682 115.787 20.4812 115.787 20.3237V17.5081L119.368 15.005L125.194 20.5362C125.261 20.6031 125.343 20.6691 125.46 20.6691C125.642 20.6691 125.793 20.5199 125.793 20.3365C125.793 20.2357 125.744 20.1358 125.661 20.0694ZM85.6984 20.0025C88.2803 20.0025 90.3615 17.9204 90.3615 15.3381C90.3615 12.7566 88.2808 10.675 85.6984 10.675C83.1161 10.675 81.034 12.7566 81.034 15.3385C81.034 17.9209 83.1161 20.0025 85.6984 20.0025ZM85.6984 10.0092C88.6464 10.0092 91.0277 12.3918 91.0277 15.3385C91.0277 18.2874 88.6464 20.6678 85.6984 20.6678C82.7504 20.6678 80.3687 18.2874 80.3687 15.3385C80.3691 12.3914 82.7504 10.0092 85.6984 10.0092ZM74.9629 20.0025H66.9681V10.3423C66.9681 10.1593 66.8189 10.0092 66.6359 10.0092C66.4515 10.0092 66.3015 10.1593 66.3015 10.3423V20.3356C66.3015 20.5191 66.4515 20.6682 66.6359 20.6682H74.9629C75.1463 20.6682 75.2968 20.5191 75.2968 20.3356C75.2968 20.1521 75.1459 20.0025 74.9629 20.0025Z" fill="black"/>
</g>
</svg>
