<svg width="116" height="28" viewBox="0 0 116 28" fill="none" xmlns="http://www.w3.org/2000/svg">
<mask id="mask0_1_5545" style="mask-type:luminance" maskUnits="userSpaceOnUse" x="0" y="4" width="116" height="19">
<path d="M116 4.99988H0V22.0274H116V4.99988Z" fill="white"/>
</mask>
<g mask="url(#mask0_1_5545)">
<path d="M2.91295 12.9401L3.80128 12.605C3.80128 12.605 3.879 12.8592 3.90862 13.075C3.93452 13.2907 3.92712 13.8069 3.92712 13.8069L2.91295 12.9401ZM5.77039 13.5373L6.10351 13.3215L6.49955 12.9902L6.57358 12.9594L6.60319 13.2869L6.55137 13.3408L5.84071 13.8493L5.8 13.8069L5.73708 13.5835L5.77039 13.5373ZM8.8277 11.9771C8.85731 11.9462 9.34958 11.7189 9.34958 11.7189L9.71232 11.4339H10.1269L10.6488 11.1488L11.2299 10.6634L12.3662 9.39208L13.5025 10.6634L14.0799 11.1488L14.6092 11.4339H15.02L15.3791 11.7189C15.3791 11.7189 15.875 11.9501 15.9047 11.9771C16.049 12.1119 16.2341 12.944 16.2341 12.944L16.0971 13.1443L15.9454 13.3639C15.9454 13.3639 15.8565 13.7106 15.7714 13.7145C14.8905 13.7414 14.5019 13.884 13.8689 14.6275C13.8689 14.6275 13.2582 14.5697 13.1805 14.6853C13.1138 14.7777 12.5735 15.5598 12.3736 15.8564L11.5667 14.6853C11.4742 14.5736 10.8708 14.6313 10.8708 14.6313C10.2342 13.8878 9.84927 13.7414 8.96835 13.7183C8.87951 13.7145 8.79438 13.3678 8.79438 13.3678L8.63893 13.1482L8.50198 12.9517C8.49457 12.9479 8.67594 12.1196 8.8277 11.9771ZM18.1958 12.8824L18.2698 12.9055L18.6622 13.2406L19.0027 13.4564L19.0323 13.4987L18.9657 13.726L18.925 13.7723L18.2143 13.2637L18.1625 13.2098L18.1958 12.8824ZM20.857 12.9941C20.8867 12.7783 20.9681 12.5202 20.9681 12.5202L21.8527 12.8554L20.8385 13.7299C20.8385 13.726 20.8311 13.206 20.857 12.9941ZM0.188768 19.7319L0.521889 19.6433L0.699553 19.5046L0.906828 19.0885L1.0919 18.9999L1.61749 18.6763L2.52431 18.1177L3.09802 17.9097L3.51627 17.875L3.56069 17.9097L3.57549 18.0214L3.53478 18.164L3.25718 18.5839L3.13504 18.842V19.0693L3.18315 19.1771L3.98634 19.5816L4.53044 19.7974L4.90428 19.8282L5.06713 19.6587L5.32993 19.5816L5.57792 19.4699L5.63344 19.3813V19.1425L5.55201 18.9768L5.41876 18.869L5.11155 18.8574L5.04122 18.8998L4.94869 19.1117L4.59706 19.3081L4.412 19.2619L3.98634 18.973L3.94193 18.7418L3.98634 18.5377L4.27875 18.1832L5.04122 17.7132L6.83637 17.2625L7.06956 17.3819L7.4471 17.3165L7.69879 17.1238L7.81353 17.1084L7.93197 17.2317L7.99489 17.459L7.96158 17.8365L7.81723 18.2564L7.52482 18.5877L6.65871 19.5085L6.14793 20.2866L6.13682 20.3829L6.01838 20.5525L6.04429 20.5794L6.09241 20.5948H6.39962L6.73274 20.433L6.77715 20.0516L7.26203 19.493L7.96158 18.7495L8.21327 18.6455H8.35763L8.47237 18.7495L8.48717 18.8651L8.43165 19.0885L8.19477 19.4507L7.53963 20.0825L7.21391 20.4831L6.77715 20.7181L6.53287 20.9107L6.45884 21.0841L5.99247 21.816V22.0279L6.60689 21.9663V21.9509L6.618 21.8777L6.80676 21.4539L7.24352 20.9261L8.51308 19.9014L9.02387 19.3813L9.30517 18.9345L9.44952 18.4375L9.69011 17.9637L10.5266 16.9697L10.8819 16.4574L11.067 15.9797L11.1299 15.5058L11.1706 15.4596H11.2188L11.3039 15.5367C11.3039 15.5367 12.0886 16.4535 12.1552 16.4458C12.2033 16.4381 12.307 16.3379 12.3699 16.2802C12.4328 16.3418 12.5364 16.4381 12.5846 16.4458C12.6475 16.4574 13.4359 15.5367 13.4359 15.5367L13.521 15.4596H13.5654L13.6061 15.5058L13.669 15.9797L13.8541 16.4574L14.2094 16.9697L15.0422 17.9637L15.2902 18.4375L15.4346 18.9345L15.7122 19.3813L16.223 19.9014L17.4962 20.9261L17.933 21.4539L18.1218 21.8777L18.1255 21.9509V21.9663L18.7436 22.0279V21.816L18.2772 21.0841L18.2032 20.9107L17.9589 20.7181L17.5184 20.4831L17.1964 20.0825L16.5413 19.4507L16.3081 19.0885L16.2489 18.8651L16.26 18.7495L16.3784 18.6455H16.5228L16.7708 18.7495L17.4703 19.493L17.9552 20.0516L18.0033 20.433L18.3364 20.5948H18.6399L18.6918 20.5794L18.7177 20.5525L18.5955 20.3829L18.5844 20.2866L18.0736 19.5085L17.2075 18.5877L16.9114 18.2564L16.7708 17.8365L16.7412 17.459L16.8041 17.2317L16.9188 17.1084L17.0373 17.1238L17.2853 17.3165L17.6702 17.3819L17.8997 17.2625L19.6874 17.7132L20.4499 18.1871L20.746 18.5415L20.7867 18.7457L20.746 18.9768L20.3204 19.2658L20.1316 19.312L19.7837 19.1155L19.6874 18.9036L19.6171 18.8613L19.3099 18.8728L19.1766 18.9807L19.0952 19.1463V19.3852L19.147 19.4738L19.3987 19.5855L19.6578 19.6626L19.8244 19.8321L20.1982 19.8012L20.7423 19.5855L21.5418 19.181L21.5862 19.077V18.8497L21.4715 18.5877L21.1902 18.1717L21.1458 18.0253L21.1643 17.9136L21.2087 17.8789L21.6269 17.9136L22.2006 18.1216L23.1038 18.6802L23.6257 19.0038L23.8144 19.0924L24.0254 19.5085L24.1957 19.6471L24.5362 19.7357L24.6213 19.7242L24.725 19.6587V19.6471L24.477 19.2503L24.0698 18.6956L23.163 18.2141L21.6195 17.1547L21.1087 16.8233L20.92 16.5575L20.857 16.3534L20.9015 15.9604L20.994 15.3209L20.9755 14.6891L20.8904 13.9495L22.1414 12.9787C22.1414 12.9787 22.4412 13.1019 22.5375 13.1058C22.6374 13.1135 22.7854 13.0056 22.7854 13.0056C22.7854 13.0056 22.9853 12.8824 22.9927 12.7052C23.0001 12.5356 22.7262 12.0734 22.7262 12.0734L22.308 11.8345L21.3715 11.0371L20.8274 10.7135L20.7312 10.5401L20.7756 10.3128L20.857 10.0701L20.8459 9.86207L20.5609 10.1664L20.5202 10.1741L20.4203 10.0277L20.3426 9.80429L19.495 11.2297L19.1692 11.9501L18.9953 12.7052C18.9953 12.7052 18.9509 12.8092 18.9101 12.813C18.8694 12.8169 18.7954 12.7629 18.7954 12.7629L18.6177 12.632L18.2439 11.8769L18.3142 11.7074L17.8257 10.8021L17.7849 10.6827L17.5962 10.5517L17.2964 10.44L17.2186 10.3205L17.3186 10.2127V9.99691L17.3482 9.95068L17.4111 9.93912H17.4518L17.4111 9.60396L17.4518 9.55774L17.6628 9.53847L17.6702 9.52692V9.4961L17.4259 9.37667L17.2779 8.98373L17.1594 8.83349L16.941 8.71406H16.6782L16.434 8.80267L16.1712 9.18405L16.0971 9.37667V9.48454H16.2045L16.26 9.5847L16.2785 9.9815L16.4228 10.1626L16.4043 10.2204L16.1712 10.4168L16.0527 10.4477L15.6419 10.3899L14.7424 10.4477L14.3353 10.3552L13.9244 10.1433L13.4137 9.69257L12.7178 8.89513L12.777 8.75644L12.7548 8.62161L12.5809 8.39817L12.6105 8.32112L15.4161 5.75544L15.8973 6.05592L16.0305 6.0251V5.90953L15.8528 5.66298L15.8084 5.54355L15.3309 5.05815L15.1903 5.00037H15.0533V5.13135L15.2828 5.53585L12.3662 8.27104L9.45322 5.53585L9.68641 5.13135V5.00037H9.53835L9.4014 5.05815L8.92023 5.5397L8.87581 5.66298L8.70185 5.90568V6.0251L8.8314 6.05977L9.31627 5.75544L12.1182 8.32112L12.1515 8.39817L11.9775 8.62161L11.959 8.75644L12.0183 8.89513L11.3187 9.69257L10.8079 10.1433L10.4008 10.3552L9.98621 10.4477L9.08679 10.3899L8.67224 10.4477L8.5575 10.4168L8.32431 10.2204L8.30581 10.1664L8.45386 9.98535L8.47237 9.58855L8.52789 9.48839H8.63153V9.37667L8.5575 9.18405L8.2947 8.80652L8.04671 8.71021H7.78392L7.56554 8.82964L7.4471 8.97988L7.30274 9.37282L7.05475 9.49225V9.52692L7.06956 9.53847L7.27313 9.56159L7.31755 9.60396L7.27313 9.93912H7.31755L7.38047 9.95453L7.41008 9.99691V10.2127L7.51002 10.3205L7.43599 10.44L7.13248 10.5517L6.94001 10.6827L6.8993 10.8021L6.41072 11.7074L6.48475 11.8807L6.10721 12.6281L5.93325 12.7591C5.93325 12.7591 5.85552 12.813 5.81481 12.8092C5.77409 12.8053 5.72597 12.7013 5.72597 12.7013L5.55571 11.9462L5.22999 11.2258L4.38239 9.79658L4.30466 10.0239L4.20102 10.1703L4.1566 10.1587L3.8753 9.85437L3.8642 10.0624L3.94933 10.309L3.99375 10.5324L3.89381 10.7096L3.35341 11.0332L2.42068 11.8307L1.99872 12.0772C1.99872 12.0772 1.72853 12.5356 1.73223 12.709C1.73593 12.8824 1.9395 13.0056 1.9395 13.0056C1.9395 13.0056 2.09126 13.1135 2.18749 13.1097C2.28743 13.1058 2.58354 12.9825 2.58354 12.9825L3.83459 13.9533L3.74946 14.693L3.73095 15.3248L3.82348 15.9604L3.8679 16.3534L3.80498 16.5614L3.61991 16.8233L3.10913 17.1547L1.56197 18.2141L0.655137 18.6956L0.24799 19.2503L0 19.6471V19.6587L0.103638 19.7242L0.188768 19.7319Z" fill="#1B1A1A"/>
<path d="M23.4109 14.212H23.4887V14.0271H23.5553L23.6404 14.0464L23.6811 14.1504V14.1889V14.2043L23.6848 14.212V14.2159H23.7552L23.7515 14.2082L23.7478 14.1851V14.1196L23.7218 14.0464L23.6441 14.004L23.7107 13.9847L23.7515 13.8923L23.6885 13.769L23.5701 13.7536H23.4146L23.4109 14.212ZM23.6367 13.9616L23.5627 13.9693H23.4887V13.8037H23.559L23.6552 13.8191L23.6811 13.8846L23.6367 13.9616ZM23.8625 13.6842C23.7811 13.6033 23.6848 13.561 23.5775 13.561C23.4628 13.561 23.3702 13.6033 23.2925 13.6842C23.2148 13.7651 23.1703 13.8653 23.1703 13.9847C23.1703 14.1003 23.2111 14.1928 23.2888 14.2775C23.3702 14.3584 23.4628 14.4046 23.5775 14.4008C23.6848 14.4008 23.7848 14.3584 23.8625 14.2775C23.9402 14.1928 23.9772 14.1003 23.9772 13.9847C23.9809 13.8692 23.9402 13.769 23.8625 13.6842ZM23.8218 13.7266C23.8884 13.7998 23.9254 13.8807 23.9254 13.9847C23.9254 14.0849 23.8921 14.1696 23.8218 14.239C23.7552 14.3122 23.67 14.3469 23.5775 14.3469C23.4813 14.3469 23.3998 14.3122 23.3295 14.239C23.2629 14.1696 23.2296 14.0849 23.2296 13.9847C23.2296 13.8807 23.2629 13.796 23.3295 13.7266C23.3998 13.6534 23.4813 13.6226 23.5775 13.6226C23.67 13.6188 23.7552 13.6534 23.8218 13.7266Z" fill="#1B1A1A"/>
<path d="M93.1365 16.7817H92.1223V10.6218H93.0995C93.0995 10.6218 93.825 10.5332 93.8176 9.82434C93.8065 9.17714 93.1365 9.13092 93.1365 9.13092H89.276C89.276 9.13092 88.5876 9.16944 88.6061 9.9168C88.632 10.5872 89.313 10.6026 89.313 10.6026H90.4679L90.4716 16.7934H89.7165C89.7165 16.7934 89.0465 16.9089 89.0206 17.5792C89.065 18.4614 89.9867 18.3997 89.9867 18.3997H93.1846C93.1846 18.3997 93.9212 18.2842 93.899 17.5561C93.8694 16.828 93.1365 16.7817 93.1365 16.7817Z" fill="#1B1A1A"/>
<path d="M40.0334 14.0118L41.4399 11.4192L42.8945 14.0118H40.0334ZM47.3509 16.7817H46.0999L45.4892 15.6491L46.6551 15.6452C46.6551 15.6452 47.3361 15.6337 47.3361 14.8863C47.3361 14.139 46.5996 14.1004 46.5996 14.1004L44.7156 14.1043L42.095 9.13467H38.5269C38.5269 9.13467 37.7756 9.1809 37.8126 9.88203C37.857 10.5794 38.4714 10.6294 38.4714 10.6294H40.0001L36.5208 16.7509H34.0039V9.11926H31.3056C31.3056 9.11926 30.5913 9.24639 30.6172 9.90514C30.6394 10.5601 31.2723 10.614 31.2723 10.614H32.2384L32.2421 16.7855H30.7615C30.7615 16.7855 30.0916 16.9127 30.1212 17.6446C30.1656 18.3265 30.8467 18.3766 30.8467 18.3766L39.1636 18.3727C39.1636 18.3727 39.989 18.4113 39.989 17.6369C39.989 16.8587 39.3079 16.7817 39.3079 16.7817H38.4714L39.1192 15.6684H43.6718L44.1456 16.774H42.7983C42.7983 16.774 42.0839 16.8587 42.0617 17.6061C42.1098 18.3034 42.728 18.3766 42.728 18.3766L47.2362 18.3727C47.2362 18.3727 47.9987 18.3458 47.9987 17.6369C48.0061 16.8626 47.3509 16.7817 47.3509 16.7817Z" fill="#1B1A1A"/>
<path d="M107.834 14.0733L109.374 11.4383L110.829 14.081L107.834 14.0733ZM115.267 16.7815H114.042L113.446 15.6874H114.6C114.6 15.6874 115.259 15.6219 115.278 14.9093C115.3 14.1889 114.56 14.1272 114.56 14.1272H112.683L110.033 9.09985H106.539C106.539 9.09985 105.843 9.16149 105.843 9.8241C105.843 10.4867 106.502 10.61 106.502 10.61H107.812L104.078 16.8046V10.6177H104.829C104.829 10.6177 105.528 10.5715 105.521 9.84721C105.51 9.12296 104.803 9.11526 104.803 9.11526L101.749 9.11911C101.749 9.11911 101.042 9.14608 101.009 9.84336C100.976 10.5484 101.675 10.6139 101.675 10.6139H102.438V15.1982L98.296 9.11526H94.9574C94.9574 9.11526 94.3874 9.06903 94.2986 9.78942C94.2024 10.5098 95.0055 10.5676 95.0055 10.5676L95.7532 10.5638V16.7738H95.1573C95.1573 16.7738 94.4503 16.82 94.4392 17.5597C94.4392 18.2839 95.2128 18.3764 95.2128 18.3764H98.4589C98.4589 18.3764 99.1029 18.2878 99.1288 17.5674C99.1511 16.8509 98.3812 16.7738 98.3812 16.7738H97.4262V11.4267L102.36 18.3803L107.405 18.3764C107.405 18.3764 108.086 18.3764 108.112 17.6213C108.145 16.8663 107.375 16.7777 107.375 16.7777H106.239L106.872 15.6451L111.599 15.6335L112.121 16.7777H110.77C110.77 16.7777 109.985 16.8123 109.985 17.5944C109.989 18.3764 110.751 18.388 110.751 18.388H115.296C115.296 18.388 116.003 18.3109 116.003 17.5828C116.003 16.8624 115.267 16.7815 115.267 16.7815Z" fill="#1B1A1A"/>
<path d="M76.4063 12.7788C75.1442 12.8135 74.8777 12.7788 74.8777 12.7788V10.5329H76.5507C76.5507 10.5329 77.6463 10.3865 77.7536 11.2687C77.8388 11.9621 77.6611 12.7442 76.4063 12.7788ZM66.731 14.1349L68.1375 11.4998L69.644 14.1349H66.731ZM80.9368 12.2703C80.9368 12.2703 81.0071 12.9869 81.6844 12.9522C82.3544 12.9175 82.3544 12.2164 82.3544 12.2164L82.3581 10.5444H83.6684V16.7892H80.611L80.5037 16.5657C80.5037 16.5657 80.215 15.9416 79.6598 15.2135C79.112 14.497 78.046 14.0231 78.046 14.0231C78.046 14.0231 79.8227 13.8652 79.9226 11.5384C79.9596 9.67375 78.4051 9.11901 78.4051 9.11901H71.8204C71.8204 9.11901 71.2319 9.29237 71.2319 9.92801C71.2319 10.5136 71.813 10.6138 71.813 10.6138H73.0307V16.7237L69.7846 10.6176L70.2769 10.6138C70.2769 10.6138 70.9543 10.5676 70.958 9.8317C70.9728 9.24614 70.3139 9.12672 70.3139 9.12672H65.6724C65.6724 9.12672 64.947 9.21147 64.947 9.86252C64.947 10.529 65.6243 10.6176 65.6243 10.6176H66.6644L64.0735 15.5872L62.1562 10.6176H63.4442C63.4442 10.6176 64.1253 10.556 64.1253 9.86252C64.1253 9.16909 63.4442 9.12672 63.4442 9.12672H60.931L58.8176 11.8735L57.1816 9.11901H54.4056C54.4056 9.11901 53.7245 9.16524 53.7134 9.86252C53.7097 10.5676 54.3945 10.6408 54.3945 10.6408H55.3975L52.7992 16.7622H52.1329C52.1329 16.7622 51.3779 16.8084 51.3779 17.5712C51.3779 18.334 52.1181 18.3648 52.1181 18.3648H56.0082C56.0082 18.3648 56.6893 18.2415 56.6893 17.5057C56.6893 16.7699 55.9823 16.7737 55.9823 16.7737H54.6684L56.693 11.7117L58.4252 14.6549C58.4252 14.6549 58.6436 15.0748 58.8176 15.0864C58.9841 15.0864 59.2358 14.6742 59.2358 14.6742L60.9051 11.7156L62.704 16.7814H61.0717C61.0717 16.7814 60.498 17.0164 60.5091 17.5481C60.5091 18.2145 61.1013 18.3802 61.1013 18.3802L66.5052 18.384C66.5052 18.384 67.2418 18.384 67.2677 17.5789C67.1974 16.7814 66.5052 16.793 66.5052 16.793H65.6021L66.0574 15.6488H70.5027L70.9839 16.82L70.2695 16.8238C70.2695 16.8238 69.6218 17.0819 69.6588 17.6598C69.6847 18.28 70.2917 18.4072 70.2917 18.4072L75.9437 18.411C75.9437 18.411 76.6395 18.3378 76.6395 17.5519C76.6358 16.9317 75.9437 16.7814 75.9437 16.7814H74.9554V14.574L75.2145 14.5702C75.2145 14.5702 75.9881 14.6357 76.1954 14.6935C76.3952 14.7474 76.8653 14.9439 77.0911 15.1134C77.4575 15.3599 77.8462 15.7991 77.8462 15.7991C77.8462 15.7991 78.4199 16.4733 78.6493 16.9047C78.8899 17.3516 79.1897 18.3686 79.1897 18.3686H86.6664C87.0847 18.3686 87.4178 18.0181 87.4178 17.575C87.4178 17.1397 87.081 16.7814 86.6664 16.7814H86.6294H86.4629H85.4857L85.4894 10.5367H86.6442V12.2087C86.6442 12.2087 86.6664 12.9291 87.4215 12.9137C88.0878 12.8982 88.0767 12.2087 88.0767 12.2087V9.09204H80.9331V12.2703H80.9368Z" fill="#1B1A1A"/>
<path d="M114.105 11.5459H114.279V11.1298H114.423L114.616 11.1722L114.704 11.4072V11.4958L114.708 11.5266L114.715 11.542L114.719 11.5497H114.878L114.871 11.5305L114.863 11.4804V11.3301L114.808 11.1606L114.634 11.0605L114.786 11.022L114.875 10.8139L114.723 10.5481L114.46 10.5096H114.108L114.105 11.5459ZM114.608 10.9834L114.442 11.0027H114.275V10.6329H114.43L114.645 10.6714L114.704 10.8216L114.608 10.9834ZM115.119 10.3632C114.938 10.1821 114.719 10.0858 114.475 10.082C114.219 10.082 114.008 10.1821 113.835 10.3593C113.657 10.5443 113.564 10.7677 113.564 11.0335C113.564 11.2916 113.661 11.5035 113.827 11.6961C114.005 11.8772 114.223 11.9773 114.475 11.9773C114.719 11.9773 114.941 11.8772 115.119 11.7C115.297 11.5112 115.378 11.2993 115.382 11.0374C115.378 10.7715 115.293 10.5443 115.119 10.3632ZM115.023 10.4518C115.174 10.6136 115.252 10.7985 115.252 11.0335C115.252 11.2531 115.174 11.4457 115.023 11.5998C114.875 11.7655 114.682 11.8425 114.475 11.8425C114.256 11.8425 114.071 11.7616 113.92 11.5998C113.768 11.4419 113.694 11.2531 113.694 11.0297C113.694 10.7947 113.772 10.6097 113.92 10.4479C114.075 10.2861 114.26 10.213 114.475 10.213C114.686 10.213 114.875 10.29 115.023 10.4518Z" fill="#1B1A1A"/>
</g>
</svg>
