<svg width="21" height="21" viewBox="0 0 21 21" fill="none" xmlns="http://www.w3.org/2000/svg">
<path fill-rule="evenodd" clip-rule="evenodd" d="M7.14377 3.15665C8.25473 2.59787 9.5098 2.28322 10.8384 2.28322C13.7308 2.28322 16.2745 3.77437 17.7411 6.02905H16.282C15.5762 6.02905 14.8993 6.3091 14.4002 6.8077C13.901 7.30621 13.6207 7.9824 13.6207 8.68739C13.6207 8.94375 13.5188 9.18967 13.3372 9.37092C13.1558 9.55217 12.9096 9.65405 12.6529 9.65405C12.3963 9.65405 12.1501 9.55217 11.9686 9.37092C11.7872 9.18967 11.6852 8.94375 11.6852 8.68739C11.6852 7.9824 11.4048 7.30621 10.9058 6.8077C10.4066 6.3091 9.72977 6.02905 9.0239 6.02905C9.00793 6.02905 8.99196 6.02954 8.97599 6.03041C8.57022 6.05341 8.16793 5.94408 7.8297 5.71885C7.52815 5.51801 7.29212 5.23472 7.1489 4.90412V3.24989C7.1489 3.21837 7.14715 3.18727 7.14377 3.15665ZM5.45536 4.28678C4.13598 5.42835 3.18392 6.98219 2.80003 8.7478H4.48762C5.19343 8.7478 5.87032 9.02785 6.36948 9.52645C6.86854 10.025 7.1489 10.7011 7.1489 11.4061V12.3124C7.1489 12.5687 7.2509 12.8147 7.43235 12.9959C7.6138 13.1772 7.85999 13.2791 8.11664 13.2791C8.82251 13.2791 9.49935 13.5591 9.99851 14.0577C10.4976 14.5562 10.7779 15.2324 10.7779 15.9374V18.7164C10.7981 18.7165 10.8183 18.7166 10.8384 18.7166C11.4834 18.7166 12.1112 18.6424 12.7134 18.5021V15.0311C12.7134 14.3261 12.9938 13.65 13.4929 13.1515C13.992 12.6528 14.6689 12.3728 15.3747 12.3728H18.8496C18.99 11.7712 19.0642 11.1442 19.0642 10.4999C19.0642 9.52442 18.8941 8.58879 18.5818 7.72072H16.282C16.0253 7.72072 15.7791 7.82261 15.5977 8.00386C15.4162 8.18511 15.3142 8.43103 15.3142 8.68739C15.3142 9.39238 15.0339 10.0686 14.5348 10.5671C14.0356 11.0657 13.3588 11.3457 12.6529 11.3457C11.9472 11.3457 11.2702 11.0657 10.7712 10.5671C10.272 10.0686 9.99164 9.39238 9.99164 8.68739C9.99164 8.43103 9.88974 8.18511 9.70819 8.00386C9.53109 7.82696 9.29244 7.72575 9.04257 7.72091C8.28019 7.75784 7.52583 7.54962 6.89032 7.12641C6.24667 6.69779 5.7599 6.07188 5.5033 5.34297C5.47157 5.25282 5.45536 5.15795 5.45536 5.06239V4.28678ZM18.252 14.0645H15.3747C15.1181 14.0645 14.8719 14.1664 14.6904 14.3476C14.509 14.5289 14.407 14.7748 14.407 15.0311V17.9052C16.0833 17.0977 17.4435 15.7389 18.252 14.0645ZM10.1346 20.3837C10.367 20.3999 10.6018 20.4082 10.8384 20.4082C16.3167 20.4082 20.7578 15.9721 20.7578 10.4999C20.7578 5.02766 16.3167 0.591553 10.8384 0.591553C5.36011 0.591553 0.919067 5.02766 0.919067 10.4999C0.919067 15.5432 4.69119 19.7064 9.57096 20.3281C9.68022 20.3795 9.80235 20.4082 9.93116 20.4082C10.0013 20.4082 10.0693 20.3997 10.1346 20.3837ZM9.08438 18.5293V15.9374C9.08438 15.681 8.98248 15.4351 8.80093 15.2539C8.61948 15.0726 8.37328 14.9707 8.11664 14.9707C7.41086 14.9707 6.73393 14.6907 6.23486 14.1921C5.7357 13.6936 5.45536 13.0174 5.45536 12.3124V11.4061C5.45536 11.1498 5.3534 10.9039 5.17191 10.7226C4.99043 10.5414 4.74427 10.4395 4.48762 10.4395H2.6731C2.65284 10.4395 2.63274 10.4388 2.61285 10.4373C2.61269 10.4582 2.61262 10.479 2.61262 10.4999C2.61262 14.4365 5.38411 17.7266 9.08438 18.5293Z" fill="#212121"/>
</svg>
