<svg width="17" height="21" viewBox="0 0 17 21" fill="none" xmlns="http://www.w3.org/2000/svg">
<path fill-rule="evenodd" clip-rule="evenodd" d="M8.4589 0.645406C8.26719 0.573602 8.05593 0.573602 7.86432 0.645406L0.606218 3.36416C0.275714 3.48796 0.0567627 3.80355 0.0567627 4.15614V10.4999C0.0567627 13.5962 2.10986 16.0766 3.97497 17.7068C4.92529 18.5373 5.87164 19.1868 6.57877 19.6283C6.93316 19.8496 7.22977 20.0199 7.43958 20.136C7.54468 20.1941 7.62809 20.2387 7.68645 20.2692C7.71568 20.2846 7.73861 20.2964 7.75477 20.3047L7.77403 20.3145L7.77984 20.3174L7.78168 20.3183C7.78197 20.3184 7.78293 20.3189 8.16161 19.5624L7.78293 20.3189C8.02129 20.438 8.30193 20.438 8.54029 20.3189L8.16161 19.5624C8.54029 20.3189 8.54009 20.319 8.54029 20.3189L8.54155 20.3183L8.54339 20.3174L8.54919 20.3145L8.56835 20.3047C8.58461 20.2964 8.60755 20.2846 8.63677 20.2692C8.69513 20.2387 8.77855 20.1941 8.88355 20.136C9.09345 20.0199 9.39006 19.8496 9.74445 19.6283C10.4516 19.1868 11.3979 18.5373 12.3483 17.7068C14.2134 16.0766 16.2664 13.5962 16.2664 10.4999V4.15614C16.2664 3.80355 16.0474 3.48796 15.717 3.36416L8.4589 0.645406ZM8.84687 18.1938C8.57416 18.364 8.34026 18.5005 8.16161 18.6011C7.98297 18.5005 7.74906 18.364 7.47635 18.1938C6.82255 17.7856 5.95439 17.1889 5.09019 16.4337C3.32629 14.8919 1.75031 12.8411 1.75031 10.4999V4.7423L8.16161 2.34074L14.5729 4.7423V10.4999C14.5729 12.8411 12.9969 14.8919 11.233 16.4337C10.3688 17.1889 9.50067 17.7856 8.84687 18.1938ZM11.4821 9.28546C11.8128 8.95515 11.8128 8.41962 11.4821 8.08931C11.1514 7.759 10.6153 7.759 10.2846 8.08931L7.25435 11.1162L6.03858 9.90181C5.7079 9.5715 5.17177 9.5715 4.84109 9.90181C4.51042 10.2321 4.51042 10.7677 4.84109 11.098L6.65561 12.9105C6.98629 13.2408 7.52242 13.2408 7.85309 12.9105L11.4821 9.28546Z" fill="#212121"/>
</svg>
