<svg width="103" height="64" viewBox="0 0 103 64" fill="none" xmlns="http://www.w3.org/2000/svg">
<mask id="mask0_1_6169" style="mask-type:luminance" maskUnits="userSpaceOnUse" x="1" y="9" width="101" height="42">
<path d="M101.983 9.14282H1.01648V50.2857H101.983V9.14282Z" fill="white"/>
</mask>
<g mask="url(#mask0_1_6169)">
<path d="M80.2464 31.5766V24.4566C80.6889 24.3839 81.0755 24.4287 81.4618 24.4175C81.8484 24.4118 82.2236 24.4175 82.6044 24.4175C82.9853 24.4175 83.3886 24.4175 83.7862 24.4175C84.1616 24.4175 84.5424 24.3951 84.8672 24.4287C84.9176 24.4847 84.9288 24.4959 84.94 24.5068C84.9455 24.518 84.9512 24.5292 84.9567 24.5404C84.9679 24.6188 84.9737 24.6915 84.9792 24.7699V45.4419C84.9792 45.481 84.9624 45.5146 84.9455 45.5482C84.9455 45.5594 84.9288 45.5649 84.9231 45.5761C84.6656 45.6488 80.8569 45.6712 80.3025 45.5985C80.1961 45.3302 80.2634 45.0392 80.2521 44.7596C80.2409 44.4799 80.2521 44.2058 80.2521 43.8703C80.1457 43.9708 80.0729 44.0326 80.0056 44.0995C78.7062 45.4586 77.0932 46.0739 75.2392 45.9116C72.2371 45.6488 70.2041 44.0326 69.0895 41.2527C68.7255 40.3411 68.5742 39.3846 68.5182 38.4058C68.4399 37.0746 68.5742 35.777 69 34.5185C69.5713 32.8239 70.6017 31.4815 72.1644 30.5866C73.279 29.9434 74.5503 29.6246 75.8385 29.6639C76.9644 29.686 78.023 29.9434 78.9695 30.5642C79.3279 30.7992 79.6527 31.0844 79.9889 31.353C80.0617 31.4145 80.1345 31.4872 80.2464 31.5766ZM80.2743 37.7178C80.2968 36.9014 80.0841 36.1014 79.6639 35.4024C78.9358 34.2111 77.7261 33.5734 76.2363 33.7971C75.0039 33.9873 74.1527 34.7199 73.643 35.8497C73.3237 36.5713 73.195 37.3599 73.2621 38.1484C73.3406 39.2113 73.7103 40.1619 74.4999 40.9226C75.9115 42.2819 78.2526 42.0972 79.4288 40.5311C80.0336 39.7146 80.2856 38.7974 80.2689 37.7178H80.2743Z" fill="#1B1A1A"/>
<path d="M51.3293 27.2868C51.7211 26.2578 52.0853 25.3012 52.4495 24.3448C53.5976 21.3245 54.7569 18.3043 55.8938 15.2784C56.4092 13.9081 57.1486 12.6888 58.2127 11.6709C61.8364 8.19756 67.5884 8.315 71.0611 11.9337C71.6603 12.5546 72.1644 13.2593 72.5622 14.02C73.1838 15.2001 73.531 16.5033 73.5702 17.8345C73.6599 20.2619 72.9149 22.3872 71.3131 24.2107C69.8736 25.8493 68.059 26.8392 65.9026 27.1693C65.4266 27.242 64.945 27.2813 64.4689 27.2868C60.2569 27.298 56.0451 27.298 51.8388 27.2868H51.3293ZM61.1978 12.9125C61.2203 13.0244 61.2372 13.1083 61.2596 13.1922C61.3324 13.4495 61.4164 13.7012 61.4723 13.9584C61.5563 14.3835 61.3436 14.8086 60.9628 15.0043C60.7105 15.133 60.4194 15.1554 60.1507 15.0659C59.865 14.9764 59.5736 14.8925 59.2656 14.803C59.1591 14.982 59.0751 15.1274 58.9856 15.2784C59.0527 15.3511 59.0921 15.3959 59.1367 15.4406C59.3159 15.6028 59.4954 15.7594 59.6688 15.9272C60.2681 16.5257 60.033 17.4317 59.2209 17.6555C59.0863 17.6946 58.9462 17.7114 58.8119 17.745C58.6327 17.7897 58.4534 17.84 58.2687 17.8904V18.4161C58.347 18.4441 58.4198 18.4777 58.4871 18.4944C58.767 18.5728 59.0584 18.6175 59.3328 18.7126C59.8481 18.8916 60.0946 19.4173 59.9433 19.9375C59.876 20.1444 59.7529 20.3234 59.5848 20.4632L58.9575 21.0449L59.2543 21.5259C59.5736 21.4308 59.8538 21.3469 60.1282 21.2686C60.5258 21.1568 60.8843 21.2127 61.1754 21.5203C61.4668 21.8279 61.5116 22.1803 61.3883 22.5718C61.3043 22.8459 61.226 23.1256 61.1308 23.4331L61.6236 23.7071C61.8701 23.45 62.0829 23.2207 62.3013 22.997C62.57 22.7117 62.9845 22.6166 63.3487 22.762C63.7296 22.8962 63.9367 23.1871 64.0152 23.573C64.0768 23.8527 64.1439 24.1323 64.2057 24.4063H64.7712C64.8273 24.1771 64.8834 23.9757 64.9338 23.7631C64.9562 23.668 64.9784 23.5675 65.0065 23.4667C65.1913 22.6781 66.205 22.4823 66.698 23.0082L67.3813 23.7352L67.8686 23.4612C67.7734 23.1366 67.6893 22.8347 67.5996 22.5327C67.4428 22.0013 67.7454 21.4364 68.2831 21.2798C68.479 21.2239 68.6864 21.2239 68.8823 21.2854C69.0895 21.3525 69.2911 21.4141 69.4985 21.4756C69.5937 21.5035 69.6889 21.5147 69.8008 21.5371L70.0753 21.0673C69.8063 20.8156 69.5543 20.603 69.3305 20.3681C68.9496 19.971 68.9608 19.3334 69.3584 18.9531C69.4761 18.8412 69.6159 18.7629 69.7672 18.7182C69.8849 18.679 70.0137 18.6622 70.1369 18.6343C70.3554 18.5784 70.5681 18.5224 70.8034 18.4609C70.7922 18.2539 70.781 18.0862 70.7697 17.9184C70.4113 17.8289 70.0865 17.7729 69.7784 17.6723C69.252 17.5213 68.9551 16.9731 69.1064 16.4474C69.151 16.2908 69.2408 16.1453 69.3527 16.0279C69.5097 15.8601 69.6832 15.7147 69.8457 15.5525C69.924 15.4742 69.9968 15.3903 70.0865 15.2952L69.7954 14.831C69.4703 14.9261 69.1847 15.0211 68.8935 15.0994C68.1767 15.3008 67.5493 14.7974 67.5996 14.0591C67.6166 13.9193 67.6445 13.7851 67.6893 13.6564C67.7566 13.4159 67.8349 13.181 67.9077 12.9405C67.807 12.8734 67.7342 12.823 67.6614 12.7783C67.5884 12.7336 67.5101 12.6944 67.3925 12.6273C67.3085 12.728 67.2357 12.8286 67.1517 12.9237C67.0173 13.0747 66.8773 13.2257 66.7427 13.3712C66.3899 13.7459 65.5946 13.7795 65.2361 13.2593C65.1409 13.1083 65.0736 12.9461 65.0345 12.7783C64.9562 12.5154 64.9056 12.247 64.844 11.9673C64.7658 11.9505 64.6872 11.9393 64.6032 11.9337C64.5025 11.9337 64.4073 11.9449 64.2897 11.9505C64.256 12.0512 64.2169 12.1463 64.1944 12.2414C64.1384 12.4483 64.1047 12.6608 64.0431 12.8678C64.004 13.0132 63.9367 13.1475 63.8472 13.2705C63.511 13.7012 62.8893 13.7795 62.4581 13.4495C62.4132 13.4159 62.3741 13.3824 62.3404 13.3432C62.1109 13.1139 61.8925 12.8678 61.6684 12.6273C61.5451 12.6944 61.4443 12.7503 61.3491 12.8063C61.2988 12.8398 61.2427 12.879 61.1978 12.9237V12.9125Z" fill="#1B1A1A"/>
<path d="M24.9995 45.9902C23.1736 45.9566 21.3757 45.4365 19.813 44.234C18.1216 42.9364 17.091 41.2361 16.7606 39.1218C16.4301 36.9908 16.8558 35.0164 18.0824 33.2434C19.2698 31.5264 20.9108 30.4301 22.9326 29.9435C25.4644 29.3282 27.8727 29.664 30.057 31.1181C31.9893 32.4045 33.1543 34.2055 33.524 36.5099C34.1402 40.3467 32.0342 43.9376 28.4495 45.3581C27.3742 45.7833 26.2149 45.9789 24.9883 45.9959L24.9995 45.9902ZM25.1171 33.8308C23.5545 33.7693 22.1374 34.7312 21.6277 36.2077C21.3757 36.9127 21.3029 37.6676 21.3981 38.4114C21.6837 40.7159 23.7056 42.1588 25.8395 41.7842C27.1389 41.5549 28.0632 40.8557 28.5841 39.6475C28.9089 38.8868 28.9872 38.0983 28.8977 37.2706C28.6848 35.3465 27.1053 33.7748 25.1171 33.8308Z" fill="#1B1A1A"/>
<path d="M101.899 39.4183C101.715 39.5636 101.513 39.5246 101.328 39.5246H91.3473C91.4146 39.7259 91.4594 39.877 91.521 40.0224C92.0811 41.3312 93.1003 41.9856 94.5007 42.0695C95.2118 42.1086 95.9177 42.0526 96.5897 41.773C97.161 41.5268 97.6875 41.1913 98.1524 40.7831C98.2476 40.6992 98.3428 40.6153 98.4604 40.509C98.5499 40.5369 98.6397 40.576 98.7179 40.6265C99.5191 41.3255 100.32 42.0304 101.115 42.7351C101.166 42.7908 101.205 42.8526 101.238 42.9195C101.177 43.0258 101.11 43.1209 101.037 43.216C99.7653 44.7038 98.1636 45.5874 96.2256 45.8727C94.6295 46.1076 93.0667 45.9902 91.5601 45.4084C89.2973 44.5305 87.7404 42.9419 87.0011 40.6377C86.2112 38.1879 86.3904 35.7828 87.6564 33.5232C88.827 31.4313 90.6416 30.1785 93.0051 29.7758C94.4334 29.5186 95.9065 29.6528 97.2675 30.1618C99.0036 30.8105 100.225 32.0297 101.02 33.6855C101.574 34.8375 101.855 36.0624 101.955 37.3321C101.989 37.9529 101.983 38.5682 101.939 39.189C101.933 39.2729 101.916 39.3511 101.894 39.4295L101.899 39.4183ZM91.2912 36.3476H97.3066C97.2787 36.2023 97.2617 36.0793 97.2281 35.9618C96.8642 34.7033 96.1416 33.786 94.7751 33.5847C93.7444 33.4336 92.8483 33.73 92.1481 34.53C91.6945 35.0446 91.4425 35.6596 91.2912 36.3476Z" fill="#1B1A1A"/>
<path d="M34.2296 49.0831C34.7394 47.9366 35.2603 46.8346 35.7701 45.7663C35.9717 45.6545 36.1004 45.7439 36.2349 45.8168C36.6717 46.0515 37.131 46.2305 37.6351 46.2641C37.747 46.2698 37.8646 46.2698 37.9768 46.2641C38.3801 46.2641 38.7497 46.0515 38.9457 45.6936L39.0745 45.4755C38.8617 44.9329 38.6488 44.3848 38.4359 43.8312C36.7726 39.5859 35.1148 35.3352 33.4512 31.0902C33.3672 30.8776 33.2832 30.6705 33.2104 30.4524C33.1768 30.3295 33.1488 30.212 33.1264 30.0833C33.2495 29.921 33.3896 29.9155 33.5297 29.9155H37.7136C37.8367 29.9267 37.9544 29.9434 38.072 29.9658C39.1698 33.249 40.2675 36.5265 41.3877 39.8657C42.4575 36.5265 43.5104 33.2602 44.569 29.9715C44.7089 29.9434 44.8435 29.9267 44.9833 29.9155C46.3051 29.9155 47.6215 29.9155 48.9433 29.9155C49.0777 29.921 49.212 29.9434 49.3409 29.9715C49.4977 30.1617 49.4082 30.3014 49.3576 30.4412C48.9376 31.5654 48.5119 32.6897 48.0918 33.8083C46.5629 37.8744 45.0339 41.9462 43.5047 46.0124C43.1744 46.8906 42.7823 47.7352 42.2165 48.4959C41.3877 49.62 40.2618 50.185 38.8784 50.2577C37.7694 50.3192 36.6774 50.2129 35.6355 49.799C35.2603 49.6479 34.9019 49.4577 34.5435 49.2787C34.437 49.2172 34.3361 49.1446 34.2409 49.0664L34.2296 49.0831Z" fill="#1B1A1A"/>
<path d="M1.03899 46.9522C2.18156 45.5707 3.64338 43.9879 3.97944 43.7922C4.06346 43.8649 4.15307 43.9431 4.24829 44.0215C4.63475 44.3627 5.01001 44.7319 5.41887 45.045C6.08538 45.5652 6.9143 45.8281 7.76004 45.7945C8.89142 45.7497 9.5803 45.1401 9.86596 44.2452C10.0116 43.7753 10.0844 43.2832 10.0788 42.7911V24.8482C10.0788 24.7252 10.0956 24.6023 10.1068 24.4567C10.5381 24.3785 10.9413 24.4288 11.339 24.4176C11.7366 24.4064 12.1511 24.4176 12.5544 24.4176C12.9576 24.4176 13.3441 24.4176 13.7361 24.4176C14.1282 24.4176 14.5427 24.3897 14.9795 24.4457C14.9908 24.5911 15.0132 24.714 15.0132 24.8315V43.0315C15.0132 44.0996 14.8619 45.1513 14.4811 46.1524C13.7698 48.026 12.4424 49.2567 10.5437 49.8775C9.56911 50.1906 8.56656 50.2969 7.5472 50.2802C5.82213 50.2521 4.22027 49.8048 2.79205 48.8258C2.20957 48.4233 1.67189 47.9479 1.20141 47.4222C1.07819 47.2823 0.982978 47.1424 1.05019 46.9467L1.03899 46.9522Z" fill="#1B1A1A"/>
<path d="M55.6699 45.5539C55.3394 45.6489 51.7099 45.6771 50.9818 45.6044C50.9484 45.5205 50.926 45.4309 50.9035 45.3415C50.8978 45.2519 50.8978 45.1625 50.9035 45.0729V30.5253C50.9035 30.352 50.926 30.1785 50.9372 29.9829C51.0827 29.9548 51.2283 29.9381 51.3739 29.9269C52.6396 29.9269 53.9111 29.9269 55.1769 29.9269C55.3337 29.9381 55.4907 29.9548 55.6417 29.9829C55.6978 30.3742 55.6642 30.7433 55.6699 31.1013C55.6754 31.4595 55.6699 31.8341 55.6699 32.2816C56.3419 31.1573 57.154 30.3072 58.3582 29.9045C59.0527 29.6695 59.7865 29.5968 60.5091 29.6919C60.5706 30.1171 60.5313 30.5141 60.537 30.9168C60.5425 31.3196 60.537 31.7278 60.537 32.1305V34.4741C60.3633 34.6643 60.184 34.6028 60.0273 34.6028C59.4168 34.5916 58.8119 34.6979 58.2406 34.9159C57.07 35.3689 56.3531 36.2471 55.9835 37.416C55.7651 38.1319 55.653 38.8759 55.6587 39.6197C55.6587 41.4542 55.6587 43.2944 55.6587 45.1289V45.5429L55.6699 45.5539Z" fill="#1B1A1A"/>
<path d="M66.8715 29.9938V45.3638C66.866 45.4365 66.8548 45.5035 66.8324 45.5707C66.5131 45.6546 62.503 45.6546 62.1612 45.5707C62.1557 45.4532 62.1388 45.319 62.1388 45.1848V30.005C62.2789 29.9716 62.4244 29.9492 62.57 29.938C63.8639 29.938 65.1576 29.938 66.4515 29.938C66.5971 29.9492 66.7372 29.9716 66.8773 30.005L66.8715 29.9938Z" fill="#1B1A1A"/>
</g>
</svg>
