<svg width="110" height="64" viewBox="0 0 110 64" fill="none" xmlns="http://www.w3.org/2000/svg">
<g clip-path="url(#clip0_1_7204)">
<path d="M106.733 43.6823C108.539 43.6823 110 42.206 110 40.3808C110 38.5351 108.539 37.0791 106.733 37.0791C104.906 37.0791 103.466 38.5351 103.466 40.3808C103.466 42.206 104.906 43.6823 106.733 43.6823Z" fill="#1B1A1A"/>
<path fill-rule="evenodd" clip-rule="evenodd" d="M14.0802 43.0883L21.472 21.0442H15.3457L10.8866 37.7829H10.7661L6.28691 21.0442H0L7.4519 43.0883H14.0802ZM29.8689 43.5612C35.1917 43.5612 39.0482 40.6618 39.691 36.3434H34.3079C33.7654 38.0298 32.1184 39.1196 29.9693 39.1196C26.9764 39.1196 25.028 36.9603 25.028 33.8143V33.4442H39.8716V31.6138C39.8716 24.9103 35.9148 20.5713 29.648 20.5713C23.2806 20.5713 19.2635 25.1363 19.2635 32.169C19.2635 39.2225 23.2405 43.5612 29.8689 43.5612ZM34.3136 29.7631H25.1746C25.3754 27.0076 27.2234 25.0129 29.7944 25.0129C32.4055 25.0129 34.1933 26.9459 34.3136 29.7631ZM51.0306 43.5612C56.3535 43.5612 60.2101 40.6618 60.8529 36.3434H55.4698C54.9274 38.0298 53.2803 39.1196 51.1312 39.1196C48.1383 39.1196 46.1899 36.9603 46.1899 33.8143V33.4442H61.0335V31.6138C61.0335 24.9103 57.0767 20.5713 50.8099 20.5713C44.4425 20.5713 40.4255 25.1363 40.4255 32.169C40.4255 39.2225 44.4024 43.5612 51.0306 43.5612ZM55.4755 29.7631H46.3364C46.5373 27.0076 48.3853 25.0129 50.9564 25.0129C53.5675 25.0129 55.355 26.9459 55.4755 29.7631ZM68.3226 50.2856V39.3868H68.4431C69.5883 41.8751 71.9984 43.4378 75.1318 43.4378C80.515 43.4378 83.8493 39.1608 83.8493 32.0664C83.8493 24.9514 80.4948 20.6947 75.0315 20.6947C71.918 20.6947 69.5278 22.2986 68.3629 24.8897H68.2424V21.0442H62.4575V50.2856H68.3226ZM73.0631 38.6056C70.1908 38.6056 68.3027 36.0556 68.3027 32.0664C68.3027 28.118 70.1908 25.5066 73.0631 25.5066C75.9956 25.5066 77.8436 28.0769 77.8436 32.0664C77.8436 36.0762 75.9956 38.6056 73.0631 38.6056ZM92.7953 43.5612C98.4796 43.5612 102.376 40.7029 102.376 36.364C102.376 33.0739 100.629 31.326 96.3103 30.3391L92.1926 29.4341C90.3045 28.9818 89.3805 28.2415 89.3805 27.1516C89.3805 25.7327 90.7062 24.7868 92.7348 24.7868C94.9043 24.7868 96.2901 25.8767 96.4106 27.6451H101.814C101.733 23.3679 98.2183 20.5713 92.8153 20.5713C87.2916 20.5713 83.7364 23.3267 83.7364 27.5217C83.7364 30.7708 85.8252 32.9505 89.9028 33.8965L93.8797 34.8012C95.8082 35.2741 96.5312 35.8911 96.5312 37.0015C96.5312 38.441 95.1855 39.3457 92.956 39.3457C90.6258 39.3457 89.1999 38.2764 88.9185 36.4257H83.1941C83.5154 40.7235 87.0506 43.5612 92.7953 43.5612Z" fill="#1B1A1A"/>
</g>
<defs>
<clipPath id="clip0_1_7204">
<rect width="110" height="64" fill="white"/>
</clipPath>
</defs>
</svg>
