<?xml version="1.0" encoding="utf-8"?>

<svg xmlns="http://www.w3.org/2000/svg" xmlns:xlink="http://www.w3.org/1999/xlink">

<symbol viewBox="0 0 64 64" id="app-1" xmlns="http://www.w3.org/2000/svg"><path d="M.88 20.7v22.602c0 7.801 6.258 14.126 13.98 14.126 1.79 0 3.501-.34 5.074-.96 2.432 4.166 6.919 6.962 12.052 6.962s9.62-2.796 12.051-6.963a13.8 13.8 0 0 0 5.074.96c7.721 0 13.98-6.324 13.98-14.126V20.7c0-7.801-6.259-14.126-13.98-14.126-1.79 0-3.5.34-5.074.96C41.607 3.365 37.12.57 31.987.57c-5.135 0-9.622 2.796-12.053 6.964a13.8 13.8 0 0 0-5.074-.96C7.14 6.574.88 12.9.88 20.701"/>
</symbol>

<symbol viewBox="0 0 59 60" id="app-10" xmlns="http://www.w3.org/2000/svg"><path d="M22.306 1.346C13.032-1.126 3.5 4.35 1.016 13.576-.613 19.62 1.19 25.776 5.236 30a17.2 17.2 0 0 0-4.22 7.473C-1.47 46.7 4.034 56.182 13.308 58.653a17.43 17.43 0 0 0 16.358-4.056 17.3 17.3 0 0 0 7.36 4.057c9.274 2.472 18.806-3.003 21.291-12.23 1.628-6.045-.174-12.202-4.22-16.423a17.2 17.2 0 0 0 4.22-7.474c2.485-9.226-3.019-18.708-12.292-21.18a17.43 17.43 0 0 0-16.358 4.056 17.3 17.3 0 0 0-7.361-4.057"/>
</symbol>

<symbol viewBox="0 0 64 64" id="app-11" xmlns="http://www.w3.org/2000/svg"><path d="M32 64c17.673 0 32-14.327 32-32S49.673 0 32 0 0 14.327 0 32s14.327 32 32 32"/>
</symbol>

<symbol viewBox="0 0 59 60" id="app-12" xmlns="http://www.w3.org/2000/svg"><path d="M22.306 1.346C13.032-1.126 3.5 4.35 1.016 13.576-.613 19.62 1.19 25.776 5.236 30a17.2 17.2 0 0 0-4.22 7.473C-1.47 46.7 4.034 56.182 13.308 58.653a17.43 17.43 0 0 0 16.358-4.056 17.3 17.3 0 0 0 7.36 4.057c9.274 2.472 18.806-3.003 21.291-12.23 1.628-6.045-.174-12.202-4.22-16.423a17.2 17.2 0 0 0 4.22-7.474c2.485-9.226-3.019-18.708-12.292-21.18a17.43 17.43 0 0 0-16.358 4.056 17.3 17.3 0 0 0-7.361-4.057"/>
</symbol>

<symbol viewBox="0 0 64 64" id="app-2" xmlns="http://www.w3.org/2000/svg"><path d="M4.021 40.099c-4.473-4.473-4.473-11.725 0-16.198l19.88-19.88c4.473-4.473 11.725-4.473 16.198 0l19.88 19.88c4.472 4.473 4.472 11.725 0 16.198l-19.88 19.88c-4.473 4.472-11.725 4.472-16.198 0z"/>
</symbol>

<symbol viewBox="0 0 59 60" id="app-3" xmlns="http://www.w3.org/2000/svg"><path d="M22.306 1.346C13.032-1.126 3.5 4.35 1.016 13.576-.613 19.62 1.19 25.776 5.236 30a17.2 17.2 0 0 0-4.22 7.473C-1.47 46.7 4.034 56.182 13.308 58.653a17.43 17.43 0 0 0 16.358-4.056 17.3 17.3 0 0 0 7.36 4.057c9.274 2.472 18.806-3.003 21.291-12.23 1.628-6.045-.174-12.202-4.22-16.423a17.2 17.2 0 0 0 4.22-7.474c2.485-9.226-3.019-18.708-12.292-21.18a17.43 17.43 0 0 0-16.358 4.056 17.3 17.3 0 0 0-7.361-4.057"/>
</symbol>

<symbol viewBox="0 0 58 58" id="app-4" xmlns="http://www.w3.org/2000/svg"><path d="M1.2 11.546C-.806 4.993 5.327-1.14 11.88.868l14.95 4.58a8.56 8.56 0 0 0 5.008 0l14.95-4.58C53.34-1.14 59.474 4.993 57.467 11.546l-4.58 14.95a8.55 8.55 0 0 0 0 5.008l4.58 14.95c2.007 6.553-4.126 12.686-10.678 10.679l-14.95-4.58a8.55 8.55 0 0 0-5.009 0l-14.95 4.58C5.326 59.14-.807 53.007 1.201 46.455l4.58-14.95a8.55 8.55 0 0 0 0-5.009z"/>
</symbol>

<symbol viewBox="0 0 64 64" id="app-5" xmlns="http://www.w3.org/2000/svg"><path d="M.88 20.7v22.602c0 7.801 6.258 14.126 13.98 14.126 1.79 0 3.501-.34 5.074-.96 2.432 4.166 6.919 6.962 12.052 6.962s9.62-2.796 12.051-6.963a13.8 13.8 0 0 0 5.074.96c7.721 0 13.98-6.324 13.98-14.126V20.7c0-7.801-6.259-14.126-13.98-14.126-1.79 0-3.5.34-5.074.96C41.607 3.365 37.12.57 31.987.57c-5.135 0-9.622 2.796-12.053 6.964a13.8 13.8 0 0 0-5.074-.96C7.14 6.574.88 12.9.88 20.701"/>
</symbol>

<symbol viewBox="0 0 64 64" id="app-6" xmlns="http://www.w3.org/2000/svg"><path d="M4.021 40.099c-4.473-4.473-4.473-11.725 0-16.198l19.88-19.88c4.473-4.473 11.725-4.473 16.198 0l19.88 19.88c4.472 4.473 4.472 11.725 0 16.198l-19.88 19.88c-4.473 4.472-11.725 4.472-16.198 0z"/>
</symbol>

<symbol viewBox="0 0 59 60" id="app-7" xmlns="http://www.w3.org/2000/svg"><path d="M22.306 1.346C13.032-1.126 3.5 4.35 1.016 13.576-.613 19.62 1.19 25.776 5.236 30a17.2 17.2 0 0 0-4.22 7.473C-1.47 46.7 4.034 56.182 13.308 58.653a17.43 17.43 0 0 0 16.358-4.056 17.3 17.3 0 0 0 7.36 4.057c9.274 2.472 18.806-3.003 21.291-12.23 1.628-6.045-.174-12.202-4.22-16.423a17.2 17.2 0 0 0 4.22-7.474c2.485-9.226-3.019-18.708-12.292-21.18a17.43 17.43 0 0 0-16.358 4.056 17.3 17.3 0 0 0-7.361-4.057"/>
</symbol>

<symbol viewBox="0 0 64 64" id="app-8" xmlns="http://www.w3.org/2000/svg"><path d="M32 64c17.673 0 32-14.327 32-32S49.673 0 32 0 0 14.327 0 32s14.327 32 32 32"/>
</symbol>

<symbol viewBox="0 0 64 64" id="app-9" xmlns="http://www.w3.org/2000/svg"><path d="M.88 20.7v22.602c0 7.801 6.258 14.126 13.98 14.126 1.79 0 3.501-.34 5.074-.96 2.432 4.166 6.919 6.962 12.052 6.962s9.62-2.796 12.051-6.963a13.8 13.8 0 0 0 5.074.96c7.721 0 13.98-6.324 13.98-14.126V20.7c0-7.801-6.259-14.126-13.98-14.126-1.79 0-3.5.34-5.074.96C41.607 3.365 37.12.57 31.987.57c-5.135 0-9.622 2.796-12.053 6.964a13.8 13.8 0 0 0-5.074-.96C7.14 6.574.88 12.9.88 20.701"/>
</symbol>

<symbol viewBox="0 0 12 12" id="arrow-right" xmlns="http://www.w3.org/2000/svg"><path d="m5.8 10.2 4.5-4.5-4.5-4.5"/>
</symbol>

<symbol viewBox="0 0 16 16" id="arrow-up" xmlns="http://www.w3.org/2000/svg"><path fill-rule="evenodd" d="M7.375.825a.9.9 0 0 1 .26-.183.9.9 0 0 1 .362-.08h.013a.87.87 0 0 1 .61.258l6.56 6.56a.875.875 0 1 1-1.237 1.238l-5.07-5.07v11.013a.875.875 0 1 1-1.75 0V3.55L2.057 8.619A.875.875 0 0 1 .82 7.38z" clip-rule="evenodd"/>
</symbol>

<symbol viewBox="0 0 16 16" id="arrow-up-white" xmlns="http://www.w3.org/2000/svg"><path stroke="#fff" stroke-linecap="round" stroke-linejoin="round" stroke-width="2" d="M8 15V1m7 7L8 1 1 8"/>
</symbol>

<symbol viewBox="0 0 22 22" id="clock" xmlns="http://www.w3.org/2000/svg"><path fill-rule="evenodd" d="M2.5 11a8.5 8.5 0 1 1 17 0 8.5 8.5 0 0 1-17 0M11 .75C5.34.75.75 5.34.75 11S5.34 21.25 11 21.25 21.25 16.66 21.25 11 16.66.75 11 .75m.875 4.625a.875.875 0 0 0-1.75 0v4.21L7.641 8.341a.875.875 0 0 0-.782 1.566l3.75 1.875A.875.875 0 0 0 11.875 11z" clip-rule="evenodd"/>
</symbol>

<symbol viewBox="0 0 12 12" id="close-icon" xmlns="http://www.w3.org/2000/svg"><path d="M10.158 11.636.544 2.023 1.84.727l9.613 9.614zm-8.318 0L.544 10.341 10.158.727l1.296 1.296z"/>
</symbol>
<symbol viewBox="0 0 25 24" id="heart" xmlns="http://www.w3.org/2000/svg"><g clip-path="url(#a)"><path stroke="#FFECEC" stroke-linecap="round" stroke-linejoin="round" stroke-width="2" d="m12.853 3.903-.353.353-.353-.353a6.501 6.501 0 1 0-9.194 9.194l1.06 1.06 7.78 7.78a1 1 0 0 0 1.414 0l7.78-7.78 1.06-1.06a6.497 6.497 0 0 0-2.109-10.604 6.5 6.5 0 0 0-7.085 1.41"/></g>
</symbol>

<symbol viewBox="0 0 72 19" id="logo" xmlns="http://www.w3.org/2000/svg"><g clip-path="url(#a)"><path d="M64.428 18.068c0 .334.18.514.514.514h1.8c.334 0 .513-.18.513-.514V9.254c0-.72.463-1.208 1.183-1.208h2.878c.333 0 .514-.18.514-.515V5.732c0-.334-.18-.514-.514-.514h-3.598c-.282 0-.463.18-.463.514v.874c0 .744-.436 1.182-1.181 1.182h-.232c-.848 0-1.414.565-1.414 1.49zM56.565 7.429c1.8 0 3.238 1.13 3.701 3.007h-7.4c.435-1.799 1.797-3.007 3.7-3.007m0-2.492c-3.931 0-6.604 2.8-6.604 6.938 0 4.06 2.596 6.99 6.861 6.99 2.801 0 4.985-1.286 5.961-3.598.154-.334-.025-.54-.36-.54h-1.952c-.232 0-.412.104-.566.31-.617.872-1.696 1.361-3.007 1.361-2.21 0-3.829-1.413-4.163-3.7h9.92c.281 0 .462-.18.462-.463v-.282c0-4.061-2.544-7.016-6.552-7.016m-13.08-.027c-2.03 0-3.7.874-4.445 2.416-.694-1.49-2.107-2.416-3.958-2.416-1.645 0-2.93.695-3.65 1.85L31.1 5.655c-.103-.334-.309-.437-.616-.437h-1.286c-.334 0-.514.18-.514.514v12.335c0 .334.18.514.514.514h1.8c.334 0 .514-.18.514-.514V10.59c0-1.876 1.182-3.135 2.93-3.135 1.644 0 2.749 1.233 2.749 3.083v7.53c0 .333.18.513.514.513h1.8c.333 0 .513-.18.513-.514v-7.478c0-1.876 1.182-3.135 2.93-3.135 1.644 0 2.75 1.233 2.75 3.083v7.53c0 .333.18.513.513.513h1.8c.334 0 .514-.18.514-.514v-8.07c-.002-2.925-1.878-5.085-5.039-5.085m-17.757.309c.334 0 .514.18.514.514v12.335c0 .334-.18.514-.514.514H23.93c-.334 0-.514-.18-.514-.514V5.733c0-.334.18-.514.514-.514zm-.9-1.464a1.69 1.69 0 0 0 1.722-1.722A1.69 1.69 0 0 0 24.829.312a1.69 1.69 0 0 0-1.722 1.721 1.69 1.69 0 0 0 1.722 1.722M14.55 18.068c0 .334.18.514.514.514h1.8c.333 0 .513-.18.513-.514V9.254c0-.72.463-1.208 1.182-1.208h2.878c.334 0 .514-.18.514-.515V5.732c0-.334-.18-.514-.514-.514H17.84c-.283 0-.463.18-.463.514v.874c0 .744-.437 1.182-1.182 1.182h-.231c-.848 0-1.414.565-1.414 1.49zM3.32 3.189h3.392c2.39 0 3.855 1.362 3.855 3.546s-1.465 3.546-3.855 3.546H3.32zm-.514 15.393c.334 0 .514-.18.514-.514v-5.217h3.572c4.06 0 6.604-2.364 6.604-6.116 0-3.778-2.544-6.142-6.604-6.142H.828c-.334 0-.515.18-.515.514v16.961c0 .334.18.514.515.514z"/></g>
</symbol>

<symbol viewBox="0 0 58 28" id="partners-1" xmlns="http://www.w3.org/2000/svg"><mask id="ata" width="58" height="19" x="0" y="2" maskUnits="userSpaceOnUse"><path d="M57.635 2.5H0V21h57.635z"/></mask><g mask="url(#ata)"><path d="m53.65 17.727.142-.285c.285-.284.427-.284.854-.142l.996.285c.285 0 .427-.143.427-.285 0-.57-2.419-.285-2.419-2.135 0-.996.996-1.565 2.135-1.565l1.423.285c.284.142.427.427.284.854l-.142.142c-.142.284-.427.427-.712.284l-.996-.142-.427.143c0 .711 2.42.284 2.42 2.134 0 .996-.854 1.708-2.135 1.708-.712 0-1.28-.285-1.708-.427-.284-.285-.284-.57-.142-.854m-4.696 1.708.285.142c.284 0 .569-.285.711-.57l.142-.284-1.85-4.411c-.284-.427 0-.57.285-.57h.854c.284 0 .569.143.569.427l.711 1.85.143.854.142-.854.57-1.85c0-.284.284-.427.569-.427h.711c.427 0 .57.143.427.57l-1.85 5.123a2.277 2.277 0 0 1-2.846 1.423c-.285-.143-.427-.427-.285-.712l.143-.284c.142-.427.427-.427.569-.427m-2.989-3.843h.143c0-.427-.427-.569-.712-.569l-.996.143c-.285.142-.57.142-.712-.143l-.142-.284c-.142-.285 0-.57.285-.712.284-.285.996-.427 1.707-.427 1.424 0 2.277.712 2.277 1.992v2.704c0 .285-.142.57-.569.57h-.427c-.427 0-.569-.285-.569-.57v-.142s-.57.712-1.565.712c-.997.142-1.708-.57-1.708-1.424.142-1.423 1.708-1.85 2.988-1.85m-.711 2.135c.427 0 .854-.57.854-.996v-.143h-.143c-.569 0-1.138.143-1.138.57 0 .284.142.569.427.569M39.419 13.6c.996 0 1.281.57 1.281.57v-1.85c0-.428.142-.57.57-.57h.569c.426 0 .569.142.569.427v6.12c0 .284-.143.569-.57.569h-.427c-.426 0-.569-.143-.569-.57v-.142s-.427.854-1.565.854c-1.28 0-2.135-1.139-2.135-2.704 0-1.708.854-2.704 2.277-2.704m.285 3.985c.57 0 .996-.427.996-1.281 0-.712-.285-1.28-.996-1.28-.427 0-.996.426-.996 1.28 0 .712.427 1.28.996 1.28m-4.839-3.273c0-.427.143-.57.57-.57h.569c.427 0 .57.143.57.427v4.127c0 .285-.143.57-.57.57h-.57c-.284 0-.569-.143-.569-.57zm0-1.85v-.285c0-.285.285-.427.57-.427h.569c.427 0 .57.142.57.427v.285c0 .427-.143.569-.57.569h-.57c-.284 0-.569-.143-.569-.57m-2.988-.143c0-.427.142-.569.57-.569h.568c.427 0 .57.142.57.427v4.696c0 .285.142.427.284.427.285.142.427.285.427.57v.426c0 .285-.142.57-.57.57-.853 0-1.85-.143-1.85-1.993zM28.319 13.6c1.566 0 2.989 1.139 2.989 2.704s-1.423 2.704-2.989 2.704-2.846-1.139-2.846-2.704 1.28-2.704 2.846-2.704m0 3.985c.57 0 1.139-.57 1.139-1.281 0-.854-.57-1.28-1.139-1.28s-1.138.426-1.138 1.28c0 .712.569 1.28 1.138 1.28m-8.538-5.266c0-.427.142-.569.569-.569h.57c.426 0 .568.142.568.427v2.277c.285-.57.854-.854 1.566-.854.996 0 1.85.427 1.85 1.85v2.846c0 .285-.142.57-.57.57h-.569c-.427 0-.569-.285-.569-.57v-2.419c0-.57-.142-.712-.57-.712-.71 0-1.138.57-1.138 1.281v1.85c0 .285-.142.57-.569.57h-.569c-.427 0-.57-.143-.57-.57zM16.792 13.6c1.566 0 2.42 1.139 2.42 2.42 0 .284-.285.569-.57.569H15.94c.142.711.569.996 1.138.996l.996-.285c.285-.142.57-.142.712.142l.142.285c.142.285.142.57-.142.712a3.2 3.2 0 0 1-1.85.569c-1.85 0-2.704-1.423-2.704-2.704 0-1.565.996-2.704 2.561-2.704m.712 1.992c0-.427-.285-.711-.712-.711s-.711.284-.854.711zm-8.823-1.28c-.143-.427.142-.57.569-.57h.57a.78.78 0 0 1 .71.427l.57 2.277.285.854.142-.854.712-2.277c0-.284.284-.427.569-.427h.711c.285 0 .57.143.427.57l-1.423 4.127c-.142.284-.284.427-.57.427h-1.138c-.426 0-.569-.143-.711-.427zM5.55 13.6c1.708 0 2.988 1.139 2.988 2.704s-1.28 2.704-2.988 2.704c-1.565 0-2.846-1.139-2.846-2.704S3.984 13.6 5.55 13.6m0 3.985c.712 0 1.28-.57 1.28-1.281 0-.854-.568-1.28-1.28-1.28-.57 0-1.138.426-1.138 1.28 0 .712.569 1.28 1.138 1.28M0 12.319c0-.427.142-.569.57-.569h.568c.427 0 .57.142.57.427v4.696c0 .285.142.427.284.427.285.142.427.285.427.57v.426c0 .285-.142.57-.569.57-.854 0-1.85-.143-1.85-1.993z"/><path fill-rule="evenodd" d="M6.973 10.612c.57 1.138 1.708 1.565 3.273 1.28l.427-.142c.996-.285 1.85-.996 1.992-1.992.143-1.139-.142-1.993-.996-2.704-.996-.57-1.992-.57-2.988-.285-1.708.427-2.562 2.277-1.708 3.842M9.108 5.63s.711-2.989-.854-3.131c-1.423-.142-.712 2.846.854 3.13M3.7 5.06c.854-.284 2.277 2.135 2.277 2.135-1.28.427-2.846-.569-3.13-.854-.285-.284 0-.996.853-1.28m10.246-1.138c-1.423-.711-2.134 2.562-2.134 2.562s2.277-.854 2.277-1.281c0-.08.09-.16.191-.25.258-.23.586-.52-.334-1.03m.143 4.696s1.28-1.565 2.419-.569c1.138.996-1.139 1.708-2.42.57M2.846 10.042c.143-1.138 2.277 0 2.277 0-.854.712-1.992 1.423-1.85.854 0-.231-.117-.204-.238-.176-.176.04-.358.083-.189-.678m7.4-1.992-.711.712-.158-.107c-.312-.214-.469-.32-.838-.32-.427 0-.712.284-.712.854-.142.284.142.711.285.853.569.712 1.138 1.139 1.85 1.424h.284l.996-1.566c.285-.427.285-.854.285-1.28-.142-.428-.427-.712-.711-.712z" clip-rule="evenodd"/><path d="m18.5 13.03-.854-.284-.711-.142-.712-.142-.142-.143-1.139-.142h-.569l-.996-.142h-1.139l-.426-.143h-1.85l-.143-.142-1.85.142-.854.143h-.427l-.142.142H6.12l-.284.142-.997.285-.996.427-.142.142h-.854v-.284l.854-.712.427-.142 1.423-.57.854-.142.996-.284h.854l.142.142.285-.142.996-.143h2.988l.143.143h1.565v.142l.142.142v-.142c0-.142.143-.285.285-.142l.854.142h.711l1.566.284.569.427.142.427.143.143v.427c0 .284-.143.284-.285.142m-8.965-1.85h-.143l.143.143zm2.846 0H9.819v.143h2.704v-.142zm.427.143v-.142h-.143v.142zm.569 0v-.142l-.142.142zm.854-.142h-.143v.142h.143zm.996.427v.142l.142-.142zm.142-.285h-.142l.142.142z"/></g>
</symbol>

<symbol viewBox="0 0 33 28" id="partners-2" xmlns="http://www.w3.org/2000/svg"><mask id="aua" width="33" height="14" x="0" y="5" maskUnits="userSpaceOnUse"><path d="M32.474 5.5H.5V19h31.974z"/></mask><g mask="url(#aua)"><path d="m10.698 9.728-3.77 9.136H4.254L.5 9.728h2.674l2.475 6.215 2.558-6.215zM16.594 19q-1.41 0-2.533-.603a4.4 4.4 0 0 1-1.752-1.674q-.63-1.07-.631-2.427 0-1.359.631-2.428a4.4 4.4 0 0 1 1.753-1.673q1.12-.603 2.533-.603t2.524.603a4.44 4.44 0 0 1 1.744 1.673q.632 1.07.632 2.428 0 1.359-.632 2.428a4.44 4.44 0 0 1-1.744 1.674Q18.007 19 16.594 19m0-2.174q.997 0 1.636-.688.64-.687.64-1.842t-.64-1.843-1.636-.687-1.644.688-.648 1.842.648 1.843 1.644.687m7.458-7.098h2.591v9.136h-2.59zm1.296-1.273q-.714 0-1.163-.425a1.38 1.38 0 0 1-.448-1.052 1.4 1.4 0 0 1 .448-1.053q.45-.425 1.163-.425t1.163.408a1.33 1.33 0 0 1 .448 1.019 1.47 1.47 0 0 1-.448 1.095q-.45.433-1.163.433M30.862 19a1.53 1.53 0 0 1-1.146-.476 1.62 1.62 0 0 1-.465-1.189q0-.73.465-1.18a1.7 1.7 0 0 1 1.146-.45c.423 0 .831.16 1.146.45q.465.45.466 1.18a1.65 1.65 0 0 1-.465 1.19 1.56 1.56 0 0 1-1.147.475"/></g>
</symbol>

<symbol viewBox="0 0 48 28" id="partners-3" xmlns="http://www.w3.org/2000/svg"><path d="M46.574 19.111c.788 0 1.426-.646 1.426-1.444 0-.808-.638-1.445-1.426-1.445-.797 0-1.425.637-1.425 1.445 0 .798.628 1.444 1.425 1.444"/><path fill-rule="evenodd" d="M6.144 18.851 9.37 9.207H6.696L4.751 16.53h-.053L2.743 9.207H0l3.252 9.644zm6.89.207c2.322 0 4.005-1.268 4.286-3.158h-2.35c-.236.738-.955 1.215-1.892 1.215-1.306 0-2.157-.945-2.157-2.321v-.162h6.477v-.8c0-2.934-1.726-4.832-4.46-4.832-2.78 0-4.532 1.997-4.532 5.074 0 3.086 1.735 4.984 4.628 4.984m1.94-6.037h-3.989c.088-1.205.894-2.078 2.016-2.078 1.14 0 1.92.846 1.972 2.078m7.294 6.037c2.323 0 4.005-1.268 4.286-3.158h-2.349c-.237.738-.955 1.215-1.893 1.215-1.306 0-2.156-.945-2.156-2.321v-.162h6.477v-.8c0-2.934-1.727-4.832-4.461-4.832-2.779 0-4.532 1.997-4.532 5.074 0 3.086 1.736 4.984 4.628 4.984m1.94-6.037H20.22c.087-1.205.894-2.078 2.015-2.078 1.14 0 1.92.846 1.973 2.078M29.813 22v-4.768h.052c.5 1.088 1.552 1.772 2.919 1.772 2.349 0 3.804-1.871 3.804-4.975 0-3.113-1.464-4.975-3.848-4.975-1.359 0-2.402.702-2.91 1.835h-.052V9.207h-2.525V22zm2.068-5.11c-1.253 0-2.077-1.116-2.077-2.86 0-1.728.824-2.87 2.077-2.87 1.28 0 2.086 1.124 2.086 2.87 0 1.753-.806 2.86-2.086 2.86m8.61 2.168c2.48 0 4.181-1.25 4.181-3.149 0-1.44-.762-2.204-2.647-2.636l-1.797-.396c-.823-.197-1.227-.521-1.227-.998 0-.62.579-1.035 1.464-1.035.947 0 1.551.477 1.604 1.25h2.358C44.393 10.225 42.858 9 40.5 9c-2.41 0-3.962 1.206-3.962 3.04 0 1.422.912 2.376 2.691 2.79l1.736.396c.841.206 1.157.476 1.157.962 0 .63-.587 1.026-1.56 1.026-1.017 0-1.64-.468-1.762-1.278h-2.498c.14 1.88 1.683 3.122 4.19 3.122" clip-rule="evenodd"/>
</symbol>

<symbol viewBox="0 0 126 28" id="partners-4" xmlns="http://www.w3.org/2000/svg"><mask id="awa" width="126" height="11" x="0" y="10" maskUnits="userSpaceOnUse"><path d="M125.8 10H.4v11h125.4z"/></mask><g mask="url(#awa)"><path d="M49.98 10.01c.182 0 .331.15.331.332a.24.24 0 0 1-.033.117l-4.018 9.975a.35.35 0 0 1-.315.199.33.33 0 0 1-.315-.2l-3.736-9.212-3.702 9.213a.35.35 0 0 1-.315.199c-.134 0-.267-.066-.316-.183l-4.018-9.991c-.017-.034-.034-.067-.034-.117 0-.183.15-.332.332-.332a.35.35 0 0 1 .316.2l3.702 9.212 3.736-9.213a.35.35 0 0 1 .315-.2.37.37 0 0 1 .315.2c1.063 2.623 2.624 6.524 3.72 9.213l3.719-9.213c.05-.116.182-.2.315-.2m-39.287 0a.33.33 0 0 0-.331.332v9.163L.996 10.143c-.083-.084-.166-.133-.265-.133a.333.333 0 0 0-.331.332v9.96a.332.332 0 0 0 .662 0v-9.163l9.366 9.362c.065.066.148.132.264.132a.33.33 0 0 0 .331-.331v-9.96a.333.333 0 0 0-.33-.332m16.6.662a.332.332 0 1 0 0-.662h-8.3a.333.333 0 0 0-.33.332v9.96c0 .183.148.332.33.332h8.3a.33.33 0 0 0 .332-.331.33.33 0 0 0-.331-.331h-7.97v-4.319h6.31c.182 0 .33-.15.33-.33a.33.33 0 0 0-.33-.332h-6.31v-4.32zm75.539 9.33a4.655 4.655 0 0 0 4.663-4.664 4.655 4.655 0 0 0-4.663-4.663 4.657 4.657 0 0 0-4.665 4.663 4.657 4.657 0 0 0 4.665 4.665m0-9.993a5.324 5.324 0 0 1 5.329 5.33 5.323 5.323 0 0 1-5.329 5.329 5.323 5.323 0 0 1-5.331-5.33 5.324 5.324 0 0 1 5.331-5.329m22.829 10.06-5.728-5.459 5.725-4.004a.336.336 0 0 0 .083-.464.336.336 0 0 0-.465-.083l-9.476 6.625v-6.342a.334.334 0 0 0-.667 0v9.994c0 .183.151.332.334.332.192 0 .32-.187.32-.344v-2.816l3.581-2.503 5.826 5.531c.067.067.149.133.266.133.182 0 .333-.15.333-.332a.35.35 0 0 0-.132-.268m-39.963-.066a4.656 4.656 0 0 0 4.664-4.665 4.655 4.655 0 0 0-4.664-4.663 4.656 4.656 0 0 0-4.664 4.663 4.656 4.656 0 0 0 4.664 4.665m0-9.994a5.324 5.324 0 0 1 5.33 5.33 5.323 5.323 0 0 1-5.33 5.329 5.323 5.323 0 0 1-5.33-5.33 5.324 5.324 0 0 1 5.33-5.329m-10.735 9.994h-7.995v-9.66a.334.334 0 0 0-.666 0v9.993c0 .183.15.332.334.332h8.327a.334.334 0 0 0 .334-.332.335.335 0 0 0-.334-.333"/></g>
</symbol>

<symbol viewBox="0 0 44 28" id="partners-5" xmlns="http://www.w3.org/2000/svg"><path fill-rule="evenodd" d="M4.167 11.5c-.541.19-1.022.492-1.527.888v-2.93c0-.949-.389-1.526-1.266-1.881-.334-.136-.37-.113-.37.244l.001 2.47c.001 1.868.003 3.735-.005 5.602-.005 1.183.453 2.156 1.3 2.947 1.391 1.301 3.564 1.52 5.215.552A4.35 4.35 0 0 0 9.57 14.58c-.568-2.39-3.155-3.864-5.403-3.08m1.199 1.418c1.482.012 2.698 1.242 2.689 2.72a2.708 2.708 0 1 1-5.415-.036c.011-1.473 1.243-2.696 2.726-2.684m25.858-1.349v8.008c0 .38.118.475.493.398q.335-.078.633-.248c.36-.192.536-.459.53-.895a166 166 0 0 1-.01-3.663l.002-.497c.004-1.079 1.05-1.929 2.113-1.727.932.177 1.533.913 1.537 1.9q.006 1.74 0 3.477c0 .215.04.41.183.576a.79.79 0 0 0 .87.24c.345-.117.541-.384.541-.783v-3.414a2.5 2.5 0 0 1 .065-.646c.24-.895 1.11-1.49 1.993-1.362.974.14 1.621.953 1.606 1.968a190 190 0 0 0-.018 2.763v.001q0 .65-.004 1.3a.7.7 0 0 0 .256.574c.281.232.617.386.976.448.31.052.424-.049.424-.358l.002-.692c.004-1.383.009-2.767-.002-4.15-.009-1.043-.38-1.944-1.178-2.634-1.414-1.224-3.413-1.15-4.751.162l-.034.035c-.076.08-.133.139-.272.007-1.275-1.21-2.736-1.396-4.289-.562-.114.061-.19.096-.278-.04-.227-.343-.57-.491-.967-.544-.368-.05-.421-.011-.421.358m-15.248 4.878-.795.002c-.697.002-1.393.003-2.09-.007-.294-.005-.294.082-.19.311.452.999 1.519 1.644 2.622 1.6.908-.038 1.753-.255 2.513-.77q.052-.036.105-.064c.18-.093.377-.174.551-.024s.157.352.09.547c-.256.736-.808 1.208-1.483 1.504-1.626.711-3.206.592-4.614-.52-1.409-1.111-1.914-2.609-1.534-4.34s1.507-2.849 3.234-3.277c2.677-.666 5.304 1.395 5.33 4.146.006.55-.325.889-.883.891l-1.848.002zm1.959-1.614a.4.4 0 0 0 0-.108c-.295-.977-1.371-1.784-2.409-1.81-1.217-.027-2.298.665-2.673 1.696-.062.173-.029.22.148.218q.559-.004 1.117 0h.559zm11.632 3.32.002-.608-.001-.526q-.005-.62.003-1.24c.014-1.4-.537-2.552-1.562-3.477-1.431-1.291-3.689-1.357-5.339-.178-1.634 1.168-2.248 3.377-1.456 5.227 1.08 2.519 4.07 3.393 6.46 1.877.212-.133.308-.11.42.093.247.434.61.685 1.132.679.243-.003.353-.08.347-.345-.01-.5-.008-1.001-.006-1.502m-4.361-5.225c1.473-.013 2.701 1.215 2.706 2.701a2.705 2.705 0 0 1-2.68 2.722c-1.488.015-2.732-1.221-2.732-2.71.002-1.475 1.232-2.7 2.706-2.713" clip-rule="evenodd"/>
</symbol>

<symbol viewBox="0 0 107 28" id="partners-6" xmlns="http://www.w3.org/2000/svg"><path fill-rule="evenodd" d="M21.124 21c-3.889 0-7.042-3.134-7.042-7s3.153-7 7.041-7 7.042 3.134 7.042 7-3.153 7-7.041 7m-8.802 0c-3.888 0-7.041-3.134-7.041-7s3.153-7 7.041-7zm-8.801-.939V7.94A6.99 6.99 0 0 0 0 14c0 2.59 1.416 4.85 3.52 6.061M36.819 10.5v1.04q.493-1.04 1.805-1.04.384 0 .692.084.306.083.548.215l-.614 1.532a1.8 1.8 0 0 0-.403-.198 1.8 1.8 0 0 0-.571-.078q-.712 0-1.078.402-.367.4-.367 1.31V17.5h-1.625v-7zm13.269 6.857a3.7 3.7 0 0 1-1.162-.778 3.62 3.62 0 0 1-1.06-2.573q0-.766.284-1.43.282-.665.776-1.16.493-.498 1.162-.779a3.7 3.7 0 0 1 1.438-.281q.59 0 1.114.162.524.161.956.448a3.46 3.46 0 0 1 1.288 1.556l-1.456.61a2.03 2.03 0 0 0-.74-.915 2 2 0 0 0-1.15-.341q-.445 0-.824.168a2.05 2.05 0 0 0-1.102 1.13 2.2 2.2 0 0 0-.157.832q0 .43.157.82a2.04 2.04 0 0 0 1.108 1.13q.384.168.83.168.687 0 1.173-.366.488-.364.729-.938l1.456.622a3.8 3.8 0 0 1-.53.886q-.324.406-.752.7a3.5 3.5 0 0 1-.957.454 3.9 3.9 0 0 1-1.143.162 3.6 3.6 0 0 1-1.438-.287m7.01-8.712v2.692q.361-.455.896-.717.535-.264 1.21-.264 1.311 0 2.052.79.74.79.74 2.201V17.5h-1.661v-3.974q0-.825-.397-1.298-.398-.473-1.192-.473-.337 0-.638.126a1.5 1.5 0 0 0-.524.366 1.7 1.7 0 0 0-.348.597q-.127.36-.127.814V17.5h-1.636V8.645zm10.253 7.347q.385-.168.662-.466.276-.3.439-.695.164-.394.163-.85a2.22 2.22 0 0 0-.602-1.526 2 2 0 0 0-.662-.46 2.1 2.1 0 0 0-.843-.167q-.445 0-.837.167-.39.168-.68.455a2.05 2.05 0 0 0-.45.683 2.2 2.2 0 0 0-.163.849q0 .455.162.855.163.402.451.694a2.1 2.1 0 0 0 1.517.629q.459 0 .843-.168m-2.365 1.406a3.5 3.5 0 0 1-1.114-.712 3.5 3.5 0 0 1-.794-1.143q-.3-.675-.301-1.537 0-.874.295-1.55t.782-1.143a3.4 3.4 0 0 1 1.12-.711 3.6 3.6 0 0 1 1.293-.246q.699 0 1.288.264.59.262.975.717V10.5h1.626v7H68.53v-.91a2.7 2.7 0 0 1-.987.772 3 3 0 0 1-1.3.282q-.638 0-1.257-.246m7.662-6.898v1.04q.493-1.04 1.806-1.04.386 0 .692.084.306.083.548.215l-.614 1.532a1.8 1.8 0 0 0-.404-.198 1.8 1.8 0 0 0-.57-.078q-.712 0-1.078.402-.368.4-.368 1.31V17.5h-1.625v-7zm8.73 4.331a2.3 2.3 0 0 1-.44.694 1.9 1.9 0 0 1-.662.467 2.1 2.1 0 0 1-.842.168 2.1 2.1 0 0 1-.837-.168 2.1 2.1 0 0 1-1.132-1.155 2.3 2.3 0 0 1-.162-.855q0-.455.162-.85a2.06 2.06 0 0 1 1.132-1.137q.39-.168.837-.168.457 0 .842.168.386.168.662.46.277.293.44.69.162.393.162.837 0 .454-.163.85m1.677-4.331h-1.626l.005.886a2.7 2.7 0 0 0-.978-.754 2.95 2.95 0 0 0-1.29-.275 3.6 3.6 0 0 0-1.293.252q-.63.248-1.115.717a3.5 3.5 0 0 0-.777 1.148q-.291.676-.287 1.55.004.862.31 1.537.303.675.8 1.138.495.465 1.117.707.621.24 1.26.238.71-.003 1.31-.294.6-.29.982-.795l.005.003c.013 2.543-.947 2.94-2.809 2.95l.007 1.487c.489-.003.815.012 1.362 0 1.772-.039 3.024-1.931 3.017-3.494zm3.211 1.675q-.536.396-.753 1.04h3.997q-.18-.705-.698-1.07t-1.275-.365q-.736 0-1.271.395m1.33 5.469q-.831 0-1.517-.282a3.5 3.5 0 0 1-1.173-.771 3.5 3.5 0 0 1-.759-1.156 3.7 3.7 0 0 1-.27-1.417 3.64 3.64 0 0 1 1.059-2.597 3.7 3.7 0 0 1 1.162-.777 3.6 3.6 0 0 1 1.438-.288q.783 0 1.45.27a3.37 3.37 0 0 1 1.901 1.896q.273.659.272 1.436v.61h-5.73q.169.742.734 1.197.567.454 1.432.454h.668v1.425zm-45.3-5.485a2.07 2.07 0 0 0-.747 1.033h3.965q-.18-.7-.693-1.062-.514-.362-1.266-.363-.727 0-1.26.392m-.185 5.146a3.5 3.5 0 0 1-1.164-.766 3.5 3.5 0 0 1-.753-1.145 3.7 3.7 0 0 1-.268-1.407q0-.758.28-1.424a3.56 3.56 0 0 1 1.922-1.923q.663-.285 1.427-.285.776 0 1.44.267.662.268 1.14.748.476.48.745 1.134.27.653.27 1.424v.605h-5.684q.166.736.727 1.187.562.451 1.42.451.682 0 1.183-.332.502-.333.753-.89l1.325.76a3.6 3.6 0 0 1-1.272 1.358q-.817.517-1.987.516-.824 0-1.504-.278m47.81-.89q.194-.197.527-.197.334 0 .522.197.19.196.19.52 0 .315-.193.51-.194.198-.528.198t-.523-.197a.7.7 0 0 1-.189-.511q0-.324.194-.52m3.74 1.154a1.81 1.81 0 0 1-1.11-1.675 1.81 1.81 0 0 1 1.83-1.825 1.9 1.9 0 0 1 1.035.305 1.76 1.76 0 0 1 .644.777l-.728.306a1 1 0 0 0-.37-.458 1 1 0 0 0-.575-.17 1.02 1.02 0 0 0-.963.65q-.078.193-.078.414a1.08 1.08 0 0 0 .297.749 1.06 1.06 0 0 0 .75.31q.343 0 .586-.182.244-.183.365-.47l.727.311q-.102.24-.264.444a1.8 1.8 0 0 1-.376.35 1.8 1.8 0 0 1-.478.227 2 2 0 0 1-.572.08q-.385 0-.72-.143m5.065-.7q.187-.085.325-.227a1.08 1.08 0 0 0 .294-.748 1.1 1.1 0 0 0-.078-.417 1.1 1.1 0 0 0-.216-.337 1 1 0 0 0-.325-.227 1 1 0 0 0-.403-.084 1 1 0 0 0-.731.31 1.08 1.08 0 0 0-.292.754 1.08 1.08 0 0 0 .292.749 1 1 0 0 0 .731.31 1 1 0 0 0 .403-.083m-1.116.703a1.8 1.8 0 0 1-.58-.389 1.84 1.84 0 0 1 0-2.585q.245-.248.58-.389.334-.14.713-.14a1.81 1.81 0 0 1 1.823 1.825q0 .376-.141.708a1.8 1.8 0 0 1-.972.97q-.331.14-.71.14t-.713-.14m3.771-3.432v.407q.168-.222.424-.35.255-.128.581-.128.415 0 .701.158.285.16.442.446.18-.275.479-.44.297-.164.676-.164.71 0 1.072.392.36.392.36 1.073v2.106h-.829v-2.039q0-.382-.193-.607-.194-.224-.572-.224a.74.74 0 0 0-.553.227q-.223.226-.223.688v1.956h-.825v-2.064q0-.376-.186-.591-.187-.217-.554-.216a.76.76 0 0 0-.569.233q-.225.233-.225.7v1.938h-.813v-3.5z" clip-rule="evenodd"/>
</symbol>

<symbol viewBox="0 0 116 28" id="partners-7" xmlns="http://www.w3.org/2000/svg"><mask id="aza" width="116" height="19" x="0" y="4" maskUnits="userSpaceOnUse"><path d="M116 5H0v17.027h116z"/></mask><g mask="url(#aza)"><path d="m2.913 12.94.888-.335s.078.254.108.47c.026.216.018.732.018.732zm2.857.597.334-.216.396-.33.074-.032.03.328-.053.054-.71.508-.041-.042-.063-.223zm3.058-1.56c.03-.03.522-.258.522-.258l.362-.285h.415l.522-.285.58-.486 1.137-1.27 1.136 1.27.578.486.53.285h.41l.36.285s.495.231.525.258c.144.135.33.967.33.967l-.138.2-.152.22s-.088.347-.174.35c-.88.027-1.27.17-1.902.913 0 0-.61-.057-.688.058-.067.093-.607.875-.807 1.171l-.807-1.17c-.093-.112-.696-.055-.696-.055-.637-.743-1.022-.89-1.903-.913-.088-.004-.174-.35-.174-.35l-.155-.22-.137-.196c-.007-.004.174-.832.326-.975m9.368.905.074.024.392.335.34.215.03.043-.066.227-.041.046-.71-.508-.052-.054zm2.661.112c.03-.216.111-.474.111-.474l.885.335-1.015.875c0-.004-.007-.524.019-.736M.189 19.732l.333-.089.178-.138.207-.416.185-.09.525-.323.907-.558.574-.208.418-.035.045.035.014.111-.04.143-.278.42-.122.258v.227l.048.108.803.405.544.215.374.031.163-.17.263-.076.248-.112.055-.089v-.239l-.081-.165-.133-.108-.307-.012-.07.043-.093.212-.352.196-.185-.046-.426-.289-.044-.231.044-.204.293-.355.762-.47 1.795-.45.234.119.377-.066.252-.192.115-.016.118.124.063.227-.033.378-.145.42-.292.33-.866.922-.511.778-.011.096-.119.17.026.026.048.016H6.4l.333-.162.044-.381.485-.559.7-.743.251-.105h.145l.114.105.015.115-.055.224-.237.362-.655.631-.326.401-.437.235-.244.193-.074.173-.467.732v.212l.615-.062v-.015l.011-.073.189-.424.437-.528 1.27-1.025.51-.52.281-.447.145-.497.24-.473.837-.994.355-.513.185-.477.063-.474.04-.046h.049l.085.077s.785.916.851.909c.048-.008.152-.108.215-.166.063.062.166.158.215.166.063.011.85-.91.85-.91l.086-.076h.044l.041.046.063.474.185.477.355.513.833.994.248.474.145.497.277.446.511.52 1.273 1.025.437.528.189.424.003.073v.015l.619.062v-.212l-.467-.732-.074-.173-.244-.193-.44-.235-.323-.4-.655-.632-.233-.363-.06-.223.012-.115.118-.105h.145l.248.105.7.743.484.559.048.381.333.162h.304l.052-.016.026-.027-.122-.17-.012-.095-.51-.778-.867-.921-.296-.332-.14-.42-.03-.377.063-.227.115-.124.118.016.248.193.385.065.23-.12 1.787.451.763.474.296.354.04.205-.04.23-.426.29-.188.046-.348-.197-.097-.211-.07-.043-.307.012-.133.108-.082.165v.24l.052.088.252.111.259.078.166.17.374-.032.544-.215.8-.405.044-.104v-.227l-.114-.262-.282-.416-.044-.147.018-.111.045-.035.418.035.574.208.903.558.522.324.188.088.211.417.17.138.341.089.085-.012.104-.065v-.012l-.248-.397-.407-.554-.907-.482-1.544-1.06-.51-.33-.189-.267-.063-.204.044-.393.093-.64-.018-.63-.086-.74 1.251-.971s.3.123.397.127c.1.008.247-.1.247-.1s.2-.124.208-.3c.007-.17-.267-.633-.267-.633l-.418-.239-.936-.797-.545-.324-.096-.173.045-.227.081-.243-.011-.208-.285.304-.04.008-.1-.146-.078-.224-.848 1.426-.326.72-.174.755s-.044.104-.085.108c-.04.004-.115-.05-.115-.05l-.177-.131-.374-.755.07-.17-.488-.905-.041-.12-.189-.13-.3-.112-.077-.12.1-.107v-.216l.03-.046.062-.012h.04l-.04-.335.04-.046.212-.02.007-.011v-.03l-.244-.12-.148-.393-.119-.15-.218-.12h-.263l-.244.089-.263.381-.074.193v.108h.107l.056.1.018.396.145.182-.019.057-.233.197-.118.03-.411-.057-.9.058-.407-.093-.41-.212-.511-.45-.696-.798.059-.139-.022-.134-.174-.224.03-.077 2.805-2.566.481.3.133-.03V5.91l-.177-.247-.045-.12-.477-.485L15.19 5h-.138v.131l.23.405-2.917 2.735-2.913-2.735.233-.405v-.13h-.148l-.137.057-.48.482-.045.123-.174.243v.12l.13.034.484-.305 2.802 2.566.034.077-.175.224-.018.134.06.14-.7.797-.511.45-.407.212-.415.093-.9-.058-.414.058-.115-.031-.233-.197-.018-.054.148-.18.018-.397.056-.1h.104v-.112l-.075-.193-.262-.377-.248-.097h-.263l-.218.12-.119.15-.144.393-.248.12v.034l.015.011.203.024.045.042-.045.335h.045l.062.016.03.042v.216l.1.107-.074.12-.304.112-.192.13-.04.12-.49.905.075.174-.378.747-.174.131s-.077.054-.118.05-.089-.108-.089-.108l-.17-.755-.326-.72-.848-1.43-.077.228-.104.146-.044-.011-.282-.305-.01.208.084.247.045.223-.1.178-.54.323-.933.798-.422.246s-.27.459-.267.632.208.297.208.297.151.107.247.104c.1-.004.397-.127.397-.127l1.25.97-.085.74-.018.632.092.635.045.393-.063.208-.185.262-.51.332-1.548 1.06-.907.48-.407.555-.248.397v.012l.104.065z"/><path d="M23.41 14.212h.079v-.185h.066l.085.02.041.103v.054l.004.008v.004h.07l-.003-.008-.004-.023v-.065l-.026-.074-.078-.042.067-.02.04-.092-.062-.123-.119-.015h-.155zm.227-.25-.074.007h-.074v-.165h.07l.096.015.026.066zm.226-.278a.4.4 0 0 0-.285-.123.38.38 0 0 0-.285.123.42.42 0 0 0-.123.3c0 .116.041.209.119.293a.38.38 0 0 0 .288.124.41.41 0 0 0 .4-.416.4.4 0 0 0-.114-.3m-.041.043a.37.37 0 0 1 .103.258q.001.15-.103.254a.32.32 0 0 1-.244.108.33.33 0 0 1-.248-.108.35.35 0 0 1-.1-.254q0-.155.1-.258a.33.33 0 0 1 .248-.104.3.3 0 0 1 .244.104m69.315 3.054h-1.015v-6.16h.978s.725-.089.718-.798c-.011-.647-.681-.693-.681-.693h-3.861s-.688.038-.67.786c.026.67.707.686.707.686h1.155l.004 6.19h-.755s-.67.116-.696.786c.044.882.966.82.966.82h3.198s.736-.115.714-.843c-.03-.728-.763-.774-.763-.774m-53.103-2.77 1.407-2.593 1.455 2.593zm7.318 2.77H46.1l-.61-1.133 1.165-.004s.681-.011.681-.759c0-.747-.736-.786-.736-.786l-1.884.004-2.621-4.97h-3.568s-.751.047-.714.748a.75.75 0 0 0 .658.747h1.53l-3.48 6.122h-2.517V9.119h-2.698s-.715.127-.689.786c.022.655.655.709.655.709h.966l.004 6.171h-1.48s-.67.128-.64.86c.044.681.725.732.725.732l8.317-.004s.825.038.825-.736a.803.803 0 0 0-.681-.855h-.837l.648-1.114h4.553l.474 1.106h-1.348s-.714.085-.736.832c.048.697.666.77.666.77l4.508-.003s.763-.027.763-.736c.007-.774-.648-.855-.648-.855m60.483-2.709 1.54-2.635 1.455 2.643zm7.433 2.709h-1.225l-.596-1.095h1.154s.659-.065.678-.778c.022-.72-.718-.782-.718-.782h-1.877l-2.65-5.027h-3.494s-.696.061-.696.724.659.786.659.786h1.31l-3.734 6.195v-6.187h.751s.699-.046.692-.77c-.011-.725-.718-.733-.718-.733l-3.054.004s-.707.027-.74.724c-.033.705.666.77.666.77h.763v4.585l-4.142-6.083h-3.339s-.57-.046-.658.674c-.097.72.706.779.706.779l.748-.004v6.21h-.596s-.707.046-.718.786c0 .724.774.816.774.816h3.246s.644-.088.67-.809c.022-.716-.748-.793-.748-.793h-.955v-5.347l4.934 6.953 5.045-.004s.681 0 .707-.755c.033-.755-.737-.843-.737-.843h-1.136l.633-1.133 4.727-.011.522 1.144h-1.351s-.785.034-.785.816c.004.782.766.794.766.794h4.545s.707-.077.707-.805c0-.72-.736-.801-.736-.801m-38.861-4.003c-1.262.034-1.528 0-1.528 0v-2.246h1.673s1.095-.146 1.203.736c.085.693-.093 1.475-1.348 1.51m-9.675 1.356 1.407-2.635 1.506 2.635zm14.206-1.865s.07.717.747.682c.67-.034.67-.736.67-.736l.004-1.672h1.31v6.245h-3.057l-.107-.223s-.289-.624-.844-1.352c-.548-.717-1.614-1.19-1.614-1.19s1.777-.159 1.877-2.486c.037-1.864-1.518-2.419-1.518-2.419H71.82s-.588.173-.588.809c0 .586.581.686.581.686h1.218v6.11l-3.246-6.106.492-.004s.677-.046.681-.782c.015-.586-.644-.705-.644-.705h-4.642s-.725.084-.725.736c0 .666.677.755.677.755h1.04l-2.59 4.97-1.918-4.97h1.288s.681-.062.681-.755-.68-.736-.68-.736H60.93l-2.113 2.746-1.636-2.754h-2.776s-.681.046-.693.744c-.003.705.681.778.681.778h1.004l-2.599 6.121h-.666s-.755.046-.755.81c0 .762.74.793.74.793h3.89s.681-.123.681-.86c0-.735-.707-.731-.707-.731h-1.314l2.025-5.062 1.732 2.943s.219.42.393.431c.166 0 .418-.412.418-.412l1.67-2.958 1.798 5.065h-1.632s-.574.235-.563.767c0 .667.592.832.592.832l5.404.004s.737 0 .763-.805c-.07-.798-.763-.786-.763-.786h-.903l.455-1.144h4.446l.48 1.171-.714.004s-.647.258-.61.836c.026.62.633.747.633.747l5.652.004s.695-.073.695-.86c-.003-.62-.695-.77-.695-.77h-.989v-2.207l.26-.004s.773.066.98.123c.2.054.67.25.896.42.367.247.755.686.755.686s.574.674.803 1.106c.24.447.54 1.464.54 1.464h7.477c.419 0 .752-.35.752-.794 0-.435-.337-.794-.752-.794h-1.18l.003-6.244h1.155v1.672s.022.72.777.705c.667-.016.656-.705.656-.705V9.092h-7.144v3.178zm33.168-.724h.174v-.416h.144l.193.042.088.235v.089l.004.03.007.016.004.008h.159l-.007-.02-.008-.05v-.15l-.055-.17-.174-.1.152-.038.089-.208-.152-.266-.263-.038h-.352zm.503-.563-.166.02h-.167v-.37h.155l.215.038.059.15zm.511-.62a.9.9 0 0 0-.644-.281c-.256 0-.467.1-.64.277a.94.94 0 0 0-.271.675c0 .258.097.47.263.662a.887.887 0 0 0 1.292.004.93.93 0 0 0 .263-.663.96.96 0 0 0-.263-.674m-.096.089a.8.8 0 0 1 .229.582c0 .22-.078.412-.229.566a.72.72 0 0 1-.548.242.73.73 0 0 1-.555-.242.8.8 0 0 1-.226-.57.82.82 0 0 1 .226-.582.74.74 0 0 1 .555-.235c.211 0 .4.077.548.239"/></g>
</symbol>

<symbol viewBox="0 0 21 21" id="planet" xmlns="http://www.w3.org/2000/svg"><path fill-rule="evenodd" d="M7.144 3.157a8.2 8.2 0 0 1 3.694-.874 8.22 8.22 0 0 1 6.903 3.746h-1.459a2.663 2.663 0 0 0-2.661 2.658.966.966 0 0 1-.968.967.97.97 0 0 1-.968-.967A2.657 2.657 0 0 0 8.976 6.03a1.88 1.88 0 0 1-1.827-1.126V3.25a1 1 0 0 0-.005-.093m-1.689 1.13A8.2 8.2 0 0 0 2.8 8.747h1.688a2.663 2.663 0 0 1 2.66 2.66v.905a.966.966 0 0 0 .969.967 2.663 2.663 0 0 1 2.66 2.658v2.78h.061c.645 0 1.273-.075 1.875-.215v-3.47a2.657 2.657 0 0 1 2.662-2.66h3.475c.14-.6.214-1.228.214-1.872 0-.976-.17-1.911-.482-2.78h-2.3a.97.97 0 0 0-.968.967 2.657 2.657 0 0 1-2.661 2.659 2.66 2.66 0 0 1-2.661-2.659.966.966 0 0 0-.95-.966 3.57 3.57 0 0 1-3.539-2.378.9.9 0 0 1-.048-.28zm12.797 9.778h-2.877a.97.97 0 0 0-.968.966v2.874a8.26 8.26 0 0 0 3.845-3.84m-8.117 6.319q.349.024.703.024c5.479 0 9.92-4.436 9.92-9.908S16.317.592 10.838.592C5.36.592.92 5.028.92 10.5c0 5.043 3.772 9.206 8.652 9.828a.84.84 0 0 0 .564.056m-1.05-1.855v-2.592a.966.966 0 0 0-.968-.966 2.66 2.66 0 0 1-2.662-2.659v-.906a.966.966 0 0 0-.967-.966H2.673l-.06-.003v.063c0 3.937 2.771 7.227 6.471 8.03" clip-rule="evenodd"/>
</symbol>

<symbol viewBox="0 0 17 21" id="shield" xmlns="http://www.w3.org/2000/svg"><path fill-rule="evenodd" d="M8.459.645a.85.85 0 0 0-.595 0L.606 3.365a.85.85 0 0 0-.55.791V10.5c0 3.096 2.054 5.577 3.919 7.207a20.5 20.5 0 0 0 3.711 2.562l.069.036.019.01.006.002.002.001.38-.756-.38.757a.85.85 0 0 0 .758 0l-.378-.757.378.757h.002l.001-.002.006-.003.02-.01.068-.035q.088-.046.247-.133a20.5 20.5 0 0 0 3.465-2.43c1.864-1.63 3.917-4.11 3.917-7.206V4.156a.85.85 0 0 0-.549-.792zm.388 17.549c-.273.17-.507.306-.685.407a19 19 0 0 1-3.071-2.167C3.325 14.892 1.75 12.84 1.75 10.5V4.742l6.41-2.401 6.412 2.401V10.5c0 2.341-1.576 4.392-3.34 5.934a19 19 0 0 1-2.386 1.76m2.635-8.909a.845.845 0 1 0-1.197-1.196l-3.03 3.027-1.216-1.214a.847.847 0 0 0-1.198 1.196l1.815 1.813c.33.33.866.33 1.197 0z" clip-rule="evenodd"/>
</symbol>

<symbol viewBox="0 0 103 64" id="testimonials-slider-pic" xmlns="http://www.w3.org/2000/svg"><mask id="bca" width="101" height="42" x="1" y="9" maskUnits="userSpaceOnUse"><path d="M101.983 9.143H1.016v41.143h100.967z"/></mask><g mask="url(#bca)"><path d="M80.246 31.577v-7.12c.443-.073.83-.028 1.216-.04.386-.005.762 0 1.142 0h1.182c.376 0 .756-.022 1.081.012.05.056.062.067.073.078l.017.033c.01.079.017.152.022.23v20.672a.23.23 0 0 1-.034.106c0 .011-.016.017-.022.028-.257.073-4.066.095-4.62.023-.107-.269-.04-.56-.05-.84-.012-.28 0-.553 0-.889-.107.1-.18.163-.247.23-1.3 1.359-2.913 1.974-4.767 1.812-3.002-.263-5.035-1.88-6.15-4.66-.364-.91-.515-1.867-.57-2.846-.08-1.331.055-2.629.481-3.887.571-1.695 1.602-3.037 3.164-3.932a6.9 6.9 0 0 1 3.674-.923c1.126.022 2.185.28 3.132.9.358.235.683.52 1.019.789.073.061.145.134.257.224m.028 6.14a4.26 4.26 0 0 0-.61-2.315c-.728-1.19-1.938-1.829-3.428-1.605-1.232.19-2.083.923-2.593 2.053a4.7 4.7 0 0 0-.38 2.298c.078 1.063.447 2.014 1.237 2.775 1.412 1.359 3.753 1.174 4.929-.392.605-.816.857-1.734.84-2.813zM51.33 27.287c.391-1.03.755-1.986 1.12-2.942 1.148-3.02 2.307-6.04 3.444-9.067.515-1.37 1.255-2.59 2.319-3.607 3.623-3.473 9.375-3.356 12.848.263.6.62 1.103 1.325 1.501 2.086a8.7 8.7 0 0 1 1.008 3.814c.09 2.428-.655 4.553-2.257 6.377-1.44 1.638-3.254 2.628-5.41 2.958a10 10 0 0 1-1.434.118q-6.32.017-12.63 0zm9.868-14.374c.022.111.04.195.062.28.072.257.156.508.212.765a.97.97 0 0 1-.51 1.046 1.05 1.05 0 0 1-.811.062c-.286-.09-.577-.174-.885-.263-.107.179-.19.324-.28.475.067.073.106.118.15.163.18.162.36.318.533.486.6.599.364 1.505-.448 1.729-.135.039-.275.055-.41.089q-.267.069-.542.145v.526c.078.028.15.062.218.078.28.079.571.123.846.219.515.179.762.704.61 1.224-.067.207-.19.386-.358.526l-.627.582.296.48c.32-.094.6-.178.874-.256.398-.112.756-.056 1.047.251.292.308.337.66.213 1.052-.084.274-.162.554-.257.861l.493.274c.246-.257.459-.486.677-.71a.95.95 0 0 1 1.048-.235c.38.134.588.425.666.811.062.28.129.56.19.833h.566c.056-.229.112-.43.163-.643q.031-.144.073-.296c.184-.789 1.198-.985 1.691-.459l.683.727.488-.274c-.096-.324-.18-.626-.27-.928a1.01 1.01 0 0 1 .684-1.253c.196-.056.403-.056.6.005.207.067.408.13.616.19.095.028.19.04.302.062l.274-.47c-.269-.251-.52-.464-.745-.699a1.003 1.003 0 0 1 .028-1.415c.118-.112.258-.19.41-.235.117-.039.246-.056.369-.084l.666-.173-.033-.543c-.359-.09-.683-.145-.992-.246a.985.985 0 0 1-.425-1.644c.157-.168.33-.313.493-.475.078-.079.15-.163.24-.258l-.29-.464c-.326.095-.611.19-.903.268-.716.202-1.344-.302-1.293-1.04.017-.14.044-.274.09-.403.067-.24.145-.475.218-.716-.101-.067-.174-.117-.247-.162-.073-.044-.15-.084-.269-.15-.084.1-.156.2-.24.296-.135.15-.275.302-.41.447-.352.375-1.147.409-1.506-.112a1.6 1.6 0 0 1-.202-.48c-.078-.264-.128-.532-.19-.812a2 2 0 0 0-.24-.033c-.102 0-.197.01-.314.017-.034.1-.073.195-.096.29-.056.207-.09.42-.15.627q-.061.218-.197.402a.997.997 0 0 1-1.507.073c-.23-.23-.448-.475-.672-.716a9 9 0 0 0-.319.18 1 1 0 0 0-.151.117zM25 45.99c-1.826-.033-3.624-.553-5.187-1.756-1.691-1.298-2.722-2.998-3.052-5.112-.33-2.131.095-4.106 1.321-5.879 1.188-1.717 2.829-2.813 4.85-3.3 2.532-.615 4.94-.279 7.125 1.175 1.932 1.287 3.097 3.088 3.467 5.392.616 3.837-1.49 7.428-5.074 8.848-1.076.425-2.235.62-3.462.638zm.117-12.16a3.54 3.54 0 0 0-3.49 2.378 4.75 4.75 0 0 0-.229 2.203c.286 2.305 2.308 3.748 4.442 3.373 1.299-.23 2.223-.928 2.744-2.136.325-.761.403-1.55.314-2.377-.213-1.925-1.793-3.496-3.78-3.44m76.781 5.587c-.184.146-.386.107-.571.107h-9.98c.067.2.111.352.173.497.56 1.31 1.58 1.964 2.98 2.047.71.04 1.417-.016 2.089-.296a6 6 0 0 0 1.562-.99c.096-.084.19-.168.308-.274.09.028.18.067.258.117q1.203 1.05 2.397 2.11.075.083.123.184a3 3 0 0 1-.201.296c-1.272 1.488-2.873 2.371-4.811 2.657-1.597.235-3.16.117-4.666-.465-2.263-.877-3.82-2.466-4.559-4.77-.79-2.45-.61-4.855.655-7.115 1.171-2.092 2.986-3.345 5.35-3.747a8.1 8.1 0 0 1 4.261.386c1.737.649 2.958 1.868 3.753 3.523.554 1.152.835 2.377.935 3.647.034.62.028 1.236-.016 1.857a1.2 1.2 0 0 1-.045.24zm-10.608-3.07h6.016c-.028-.146-.045-.269-.079-.386-.364-1.259-1.086-2.176-2.453-2.377-1.03-.151-1.927.145-2.627.945-.453.515-.706 1.13-.857 1.818"/><path d="M34.23 49.083c.51-1.146 1.03-2.248 1.54-3.317.202-.111.33-.022.465.05.437.235.896.414 1.4.448.112.006.23.006.342 0 .403 0 .773-.213.969-.57l.129-.219q-.32-.813-.64-1.644c-1.662-4.245-3.32-8.496-4.984-12.74-.084-.213-.168-.42-.24-.639a4 4 0 0 1-.085-.369c.123-.162.264-.167.404-.167h4.184q.183.015.358.05c1.098 3.283 2.195 6.56 3.316 9.9 1.07-3.34 2.122-6.606 3.181-9.894.14-.029.274-.045.414-.056h3.96c.135.005.269.027.398.055.157.19.067.33.017.47-.42 1.124-.846 2.249-1.266 3.367-1.53 4.066-3.058 8.138-4.587 12.204-.33.879-.723 1.723-1.288 2.484-.83 1.124-1.955 1.689-3.339 1.762-1.109.061-2.2-.045-3.242-.459-.376-.151-.734-.341-1.093-.52a2 2 0 0 1-.302-.213zM1.039 46.952c1.143-1.381 2.604-2.964 2.94-3.16q.126.11.27.23c.386.34.761.71 1.17 1.023a3.57 3.57 0 0 0 2.341.75c1.131-.045 1.82-.655 2.106-1.55.146-.47.218-.962.213-1.454V24.848c0-.123.017-.246.028-.391.431-.079.834-.028 1.232-.04.398-.01.812 0 1.215 0h1.182c.392 0 .807-.027 1.243.029.012.145.034.268.034.385v18.2c0 1.069-.151 2.12-.532 3.121-.711 1.874-2.039 3.105-3.937 3.725-.975.314-1.977.42-2.997.403-1.725-.028-3.327-.475-4.755-1.454a9 9 0 0 1-1.59-1.404c-.124-.14-.219-.28-.152-.475zm54.631-1.398c-.33.095-3.96.123-4.688.05-.034-.084-.056-.173-.078-.262a2 2 0 0 1 0-.27V30.526c0-.173.022-.346.033-.542q.218-.04.437-.056h3.803q.237.015.465.056c.056.391.022.76.028 1.118.005.358 0 .733 0 1.18.672-1.124 1.484-1.974 2.688-2.376a4.8 4.8 0 0 1 2.151-.213c.062.425.022.822.028 1.225.005.403 0 .81 0 1.213v2.344c-.174.19-.353.129-.51.129a4.8 4.8 0 0 0-1.786.313c-1.171.453-1.888 1.331-2.258 2.5a7.4 7.4 0 0 0-.324 2.204v5.923zm11.202-15.56v15.37a.8.8 0 0 1-.04.207c-.319.084-4.329.084-4.67 0-.006-.118-.023-.252-.023-.386v-15.18a3 3 0 0 1 .431-.067h3.881q.218.017.426.067z"/></g>
</symbol>

<symbol viewBox="0 0 110 64" id="veeps" xmlns="http://www.w3.org/2000/svg"><g clip-path="url(#a)"><path d="M106.733 43.682c1.806 0 3.267-1.476 3.267-3.301 0-1.846-1.461-3.302-3.267-3.302-1.827 0-3.267 1.456-3.267 3.302 0 1.825 1.44 3.301 3.267 3.301"/><path fill-rule="evenodd" d="m14.08 43.088 7.392-22.044h-6.126l-4.46 16.739h-.12l-4.48-16.739H0l7.452 22.044zm15.789.473c5.323 0 9.18-2.9 9.822-7.218h-5.383c-.543 1.687-2.19 2.777-4.339 2.777-2.993 0-4.941-2.16-4.941-5.306v-.37h14.844v-1.83c0-6.704-3.957-11.043-10.224-11.043-6.367 0-10.384 4.565-10.384 11.598 0 7.054 3.977 11.392 10.605 11.392m4.445-13.798h-9.14c.201-2.755 2.05-4.75 4.62-4.75 2.612 0 4.4 1.933 4.52 4.75M51.03 43.561c5.322 0 9.18-2.9 9.822-7.218H55.47c-.543 1.687-2.19 2.777-4.339 2.777-2.993 0-4.941-2.16-4.941-5.306v-.37h14.843v-1.83c0-6.704-3.956-11.043-10.223-11.043-6.367 0-10.385 4.565-10.385 11.598 0 7.054 3.977 11.392 10.606 11.392m4.444-13.798h-9.139c.201-2.755 2.05-4.75 4.62-4.75 2.611 0 4.399 1.933 4.52 4.75m12.848 20.523v-10.9h.12c1.145 2.49 3.555 4.052 6.689 4.052 5.383 0 8.717-4.277 8.717-11.372 0-7.115-3.354-11.371-8.818-11.371-3.113 0-5.503 1.604-6.668 4.195h-.12v-3.846h-5.785v29.242zm4.74-11.68c-2.872 0-4.76-2.55-4.76-6.54 0-3.948 1.888-6.56 4.76-6.56 2.933 0 4.78 2.57 4.78 6.56 0 4.01-1.847 6.54-4.78 6.54m19.732 4.955c5.685 0 9.581-2.858 9.581-7.197 0-3.29-1.747-5.038-6.066-6.025l-4.117-.905c-1.888-.452-2.812-1.193-2.812-2.282 0-1.42 1.325-2.365 3.354-2.365 2.17 0 3.555 1.09 3.676 2.858h5.403c-.081-4.277-3.596-7.074-8.999-7.074-5.523 0-9.079 2.756-9.079 6.95 0 3.25 2.09 5.43 6.167 6.376l3.977.904c1.928.473 2.651 1.09 2.651 2.2 0 1.44-1.346 2.345-3.575 2.345-2.33 0-3.756-1.07-4.038-2.92h-5.724c.321 4.297 3.857 7.135 9.601 7.135" clip-rule="evenodd"/></g>
</symbol>

</svg>